<?xml version="1.0" encoding="utf-8"?>
<!-- Generator: Adobe Illustrator 27.6.1, SVG Export Plug-In . SVG Version: 6.00 Build 0)  -->
<svg version="1.1" id="Layer_1" xmlns="http://www.w3.org/2000/svg" xmlns:xlink="http://www.w3.org/1999/xlink" x="0px" y="0px"
	 viewBox="0 0 1179 873" style="enable-background:new 0 0 1179 873;" xml:space="preserve">
<style type="text/css">
	.st0{fill:#FFFFFF;}
	.st1{fill:#D1D1D1;}
	.st2{fill:#505355;}
	.st3{fill:#0E5598;}
	.st4{fill:url(#SVGID_1_);}
	.st5{opacity:0.59;fill:#003C77;enable-background:new    ;}
	.st6{fill:#BCBCBC;}
	.st7{opacity:0.59;fill:#636363;enable-background:new    ;}
	.st8{opacity:0.65;fill:#AAAAAA;enable-background:new    ;}
	.st9{fill:url(#SVGID_00000075125474166681529780000011613403109940336805_);}
	.st10{fill:none;stroke:#505355;stroke-linecap:round;stroke-linejoin:round;}
	.st11{fill:none;stroke:#505355;stroke-linejoin:round;}
</style>
<path class="st0" d="M569,55.7c-1.6-1.8-3.4-3.5-5.4-4.9c-0.4-0.3-0.8-0.6-1.3-0.6c-0.8-0.1-1.6,0.5-2,1.1c-0.4,0.7-0.4,1.5-0.3,2.3
	c0.1,2,0.3,4,0.6,6c0.1,0.8,0.3,1.5,0.1,2.3s-0.9,1.4-1.7,1.4c-0.4,0-0.9-0.2-1.2,0.1c-0.1,0.1-0.2,0.3-0.2,0.5
	c-0.2,2.2-2.6,3.3-3.5,5.4c-1.4,3.2-1.1,11.2-0.9,14.5c0.2,2.1,0.9,5.1,1.4,6.3c2.2,5.7,2.7,12.1,7.4,17.4
	c-1.7,2.2,8.2-10.2,6.5-7.9c-0.3,0.4,0.9,0.9,1.1,1.4c0.1,0.3,1,1.3,1.2,1.5c3.3,1.9,4.4,1.6,8.3,1.7c1.5,0,6.5-1.3,7.8-2.1
	c1.1-0.8,1.5-2,0.9-3.3c-0.8-0.8-0.6-1.1-1.7-1.3c-0.6-0.1-1.3,0-1.9-0.1c-2.7-0.5-3.7-3.8-2.8-6.2c0.9-2.4,3.1-4.1,5-5.9
	s3.7-4.1,3.5-6.6c-0.1-1-0.4-1.9-0.9-2.7c-0.8-1.6-1.8-3.1-3.1-4.4c-1-1-2-1.9-2.6-3.2c-0.8-1.6-0.6-3.4-1-5.2
	c-1-4-5.7-6.9-10.1-6.1c-1.9,0.3-3.8,1.5-3.9,3.3c-0.1,0.7,0.2,1.5-0.1,2.2s-1.5,1.1-1.8,0.4"/>
<path class="st1" d="M617.2,56.2c0.1-0.7-0.4-1.1-0.9-1.2c-0.2-1.2-0.4-2.4-0.7-3.5c-0.7-2.6-1.7-5-3.1-7.3l0,0
	c-0.2-0.7-0.5-1.2-0.9-1.8c0.1,0,0.2,0.1,0.3,0.1c-1.2-1.4-2.1-3-3.1-4.5c-1.1-1.2-2.4-2.3-3.7-3.2c-3.7-4.1-8.7-6.6-13.9-8.4
	c-0.2,0.1-0.4,0.1-0.6,0.1c-2.3,0-4.7-0.1-7-0.2c-2,0-4.2-0.2-6.2,0.4c-1.8,0.5-3.3,1.6-4.9,2.3c-1.5,0.6-3.1,1-4.2,2.2
	c-0.2,0.4-0.4,0.8-0.8,1.1c-2.3,1.5-4.4,3.3-6.3,5.3c-0.5,1.9-1.4,3.7-2.3,5.5c-0.3,0.6-0.6,1.1-0.8,1.7c-0.1,0.6-0.2,1.3-0.3,1.9
	c-1.7,5.3-1.5,11,0.6,16.2c0.1,0.3,0.3,0.5,0.5,0.6l0,0c0,0,0,0,0,0.1l0,0c0,0.1,0.1,0.2,0.1,0.2c0.5,1,2.1,0.3,1.8-0.8
	c-0.3-1-0.5-1.9-0.7-2.9c-0.2-2.8-0.1-5.5,0.3-8.2c0.3,0,0.7-0.1,1-0.1c1.7,0.5,3.3,1.2,4.8,2.1c0.1,0.2,0.2,0.4,0.3,0.6
	c0.6,0.1,1.2,0.4,1.5,1c1,2.2,1.2,4.4,0.9,6.7c-0.1,0.4-0.1,0.9-0.2,1.3c1.3-0.8,2.8-1.4,4.1-2.1c0.1-0.1,0.2-0.1,0.4-0.2
	c0,0,0-0.1,0.1-0.1c0.2,0,0.3-0.1,0.4-0.3c0.6-0.7,1.2-1.4,1.8-2.1c0.2-0.7,0.7-1.3,1.4-1.5c1-0.3,2.2,0.4,2.5,1.4
	c0.2,0.8,0.1,1.6-0.1,2.4c0.3,0.3,0.6,0.6,0.9,0.9c0.2,0.1,0.3,0.2,0.5,0.4c0.7,0.6,1.5,1.2,2.4,1.7c1.2,1.8,2.5,3.5,4.9,3.9
	c1,0.2,1.8,0,2.5-0.4c1.6,0.8,3.3,1.3,5.1,1.5c2.1,0.6,4.1,0.7,6.2,0.4c0.3,0.3,0.9,0.5,1.4,0c0.2-0.1,0.3-0.3,0.5-0.5
	c2.4-0.7,4.8-1.8,6.9-3.1c0.2,0.2,0.4,0.3,0.7,0.3c1.1-0.1,1.7-1,1.8-1.8c1.1-0.5,2.1-1,2.8-1.8c1-1.1,1-2.7,0.9-4.1
	C616.9,57.6,617.1,56.9,617.2,56.2z M578,55.8c0.1-0.1,0.1-0.1,0.2-0.2c0.3,0.8,0.7,1.5,1,2.2C578.7,57.2,578.3,56.5,578,55.8z"/>
<path class="st2" d="M183.2,474.2c-1.1,0-2.2-0.3-3.2-0.8c-2.3-1.2-4-4.1-5-8.2l-64.1-221.4c-1.6-6.5,0.5-11.8,6.1-15L422.4,52
	c0.9-0.6,1.8-0.9,2.9-1.1c1-0.1,2.1,0,3,0.3c2.2,0.9,3.9,3.3,5,7l64.6,223.7c2.3,7.3-0.6,12.9-8.8,17L186.4,473.6l-0.1,0.1
	C185.3,474,184.2,474.2,183.2,474.2z M426.3,52c-1.2,0.1-2.3,0.4-3.3,1L117.5,229.8c-3.6,2.1-7.4,6.1-5.5,13.6l64.2,221.4
	c0.9,3.8,2.4,6.3,4.4,7.4c0.8,0.4,1.7,0.6,2.6,0.7c0.9,0,1.8-0.1,2.6-0.5l302.7-174.8c7.8-3.8,10.4-8.8,8.2-15.5L432.1,58.5
	c-1-3.3-2.4-5.4-4.2-6.2C427.3,52.1,426.8,52,426.3,52z"/>
<path class="st2" d="M182.4,474.2c-7.9,0-12.3-2.2-13.4-6.7l-65.2-223.7c-1.6-6.5,0.5-11.8,6.1-15L415.4,52
	c4.6-2.6,11.5-1.1,11.8-1.1l-0.3,1.2c-0.1,0-6.7-1.4-10.9,1L110.5,229.8c-3.6,2.1-7.4,6.1-5.5,13.6l65.2,223.8
	c0.9,3.9,4.9,5.8,12.2,5.8V474.2z"/>
<path class="st2" d="M403.1,615.9c-3.7,0-7.4-0.9-10.7-2.7l-204-117.7c-3.4-2-5.1-4.6-4.7-7.2v-12h1.2v12.1c-0.3,2.1,1.2,4.4,4.1,6
	l204,117.8c5.2,3,13.2,3.4,17.7,0.8l302.9-174.8c2.4-1.4,2.9-2.8,2.7-5.3v-9.7h1.2v9.6c0.2,2.7-0.3,4.6-3.3,6.4L411.4,614
	C408.8,615.3,406,615.9,403.1,615.9z"/>
<path class="st2" d="M322.2,541c-1.8,0-3.6-0.4-5.2-1.3l-104.2-60.2c-0.7-0.3-1.2-0.8-1.7-1.4c-0.4-0.6-0.7-1.3-0.8-2
	c0-0.6,0.2-1.1,0.5-1.6s0.8-0.9,1.3-1.1l280.6-162c1.5-0.7,3.1-1,4.7-1c1.6,0.1,3.2,0.5,4.6,1.3l104.2,60.2c0.7,0.3,1.2,0.8,1.7,1.4
	c0.4,0.6,0.7,1.3,0.8,2c0,0.6-0.2,1.1-0.5,1.6s-0.8,0.9-1.3,1.1L326.3,540C325.1,540.7,323.7,541,322.2,541z M496.9,311.7
	c-1.2,0-2.4,0.2-3.5,0.8l-280.6,162c-0.3,0.1-0.6,0.4-0.8,0.7s-0.3,0.6-0.4,1c0,0.8,0.7,1.6,1.8,2.3l104.2,60.1
	c1.2,0.7,2.6,1.1,4,1.1c1.4,0.1,2.8-0.2,4.1-0.8l280.6-162c0.3-0.1,0.6-0.4,0.8-0.7c0.2-0.3,0.3-0.6,0.4-1c-0.1-0.5-0.3-1-0.6-1.4
	s-0.7-0.7-1.2-0.9l-104.2-60.2C500.1,312,498.5,311.6,496.9,311.7L496.9,311.7z"/>
<path class="st2" d="M526,397.8c-0.9,0-1.7-0.2-2.5-0.6l-12.1-7c-0.3-0.2-0.6-0.4-0.9-0.7c-0.2-0.3-0.3-0.7-0.4-1.1
	c0-0.3,0.1-0.6,0.3-0.9s0.4-0.5,0.7-0.6l12.7-7.3c0.7-0.3,1.5-0.5,2.3-0.5s1.6,0.2,2.2,0.6l12.1,7c0.3,0.2,0.6,0.4,0.9,0.7
	c0.2,0.3,0.3,0.7,0.4,1.1c0,0.3-0.1,0.6-0.3,0.9s-0.4,0.5-0.7,0.6l-12.7,7.3C527.3,397.7,526.6,397.8,526,397.8z M525.7,380.3
	c-0.5,0-1,0.1-1.4,0.3l-12.7,7.3c-0.1,0.1-0.4,0.3-0.4,0.5s0.2,0.5,0.7,0.7l12.1,7c0.5,0.3,1.1,0.4,1.6,0.5c0.6,0,1.1-0.1,1.7-0.3
	L540,389c0.1-0.1,0.4-0.2,0.4-0.5c0-0.2-0.2-0.5-0.6-0.8l-12-7C527.1,380.4,526.4,380.3,525.7,380.3L525.7,380.3z"/>
<path class="st2" d="M505.7,409.5c-0.9,0-1.7-0.2-2.5-0.6l-12.1-7c-0.3-0.2-0.6-0.4-0.9-0.7c-0.2-0.3-0.3-0.7-0.4-1.1
	c0-0.3,0.1-0.6,0.3-0.9c0.2-0.3,0.4-0.5,0.7-0.6l12.7-7.3c0.7-0.3,1.5-0.5,2.3-0.5s1.6,0.2,2.2,0.6l12.1,7c0.3,0.2,0.6,0.4,0.8,0.8
	c0.2,0.3,0.3,0.7,0.4,1.1c0,0.3-0.1,0.6-0.3,0.9s-0.4,0.5-0.7,0.6l-12.7,7.3C507.1,409.4,506.4,409.5,505.7,409.5z M505.5,392
	c-0.5,0-1,0.1-1.4,0.3l-12.7,7.3c-0.1,0.1-0.4,0.3-0.4,0.5s0.2,0.5,0.7,0.8l12.1,7c0.5,0.3,1.1,0.4,1.6,0.5c0.6,0,1.2-0.1,1.7-0.3
	l12.7-7.3c0.1-0.1,0.4-0.2,0.4-0.5c0-0.2-0.2-0.5-0.7-0.8l-12.1-7C506.8,392.2,506.1,392,505.5,392L505.5,392z"/>
<path class="st2" d="M485.5,421.2c-0.9,0-1.8-0.2-2.5-0.6l-12.1-7c-0.3-0.2-0.6-0.4-0.8-0.7c-0.2-0.3-0.3-0.7-0.4-1.1
	c0-0.3,0.1-0.6,0.3-0.9c0.2-0.3,0.4-0.5,0.7-0.6l12.7-7.3c0.7-0.3,1.5-0.5,2.3-0.5s1.6,0.2,2.2,0.6l12.1,7c0.3,0.2,0.6,0.4,0.9,0.7
	c0.2,0.3,0.3,0.7,0.4,1.1c0,0.3-0.1,0.6-0.3,0.9c-0.2,0.3-0.4,0.5-0.7,0.6l-12.7,7.3C486.9,421.1,486.2,421.2,485.5,421.2z
	 M485.2,403.7c-0.5,0-1,0.1-1.4,0.3l-12.7,7.3c-0.1,0.1-0.4,0.2-0.4,0.5c0,0.2,0.2,0.5,0.7,0.8l12.1,7c0.5,0.3,1.1,0.4,1.6,0.5
	c0.6,0,1.2-0.1,1.7-0.3l12.7-7.3c0.1-0.1,0.4-0.2,0.4-0.5c0-0.2-0.2-0.5-0.7-0.8l-12.1-7C486.6,403.8,485.9,403.7,485.2,403.7z"/>
<path class="st2" d="M465.2,432.9c-0.9,0-1.8-0.2-2.5-0.6l-12.1-7c-0.3-0.2-0.6-0.4-0.9-0.7c-0.2-0.3-0.3-0.7-0.4-1.1
	c0-0.3,0.1-0.6,0.3-0.9c0.2-0.3,0.4-0.5,0.7-0.6l12.7-7.3c0.7-0.3,1.5-0.5,2.3-0.5s1.6,0.2,2.3,0.6l12.1,7c0.3,0.2,0.6,0.4,0.8,0.7
	c0.2,0.3,0.3,0.7,0.4,1.1c0,0.3-0.1,0.6-0.3,0.9c-0.2,0.3-0.4,0.5-0.7,0.6l-12.7,7.3C466.6,432.7,465.9,432.9,465.2,432.9z
	 M465,415.4c-0.5,0-1,0.1-1.4,0.3l-12.7,7.3c-0.1,0.1-0.4,0.2-0.4,0.5c0,0.2,0.2,0.5,0.7,0.8l12.1,7c0.5,0.3,1.1,0.4,1.6,0.5
	c0.6,0,1.1-0.1,1.7-0.3l12.7-7.3c0.1-0.1,0.4-0.2,0.4-0.5c0-0.2-0.2-0.5-0.7-0.8l-12.1-7C466.3,415.5,465.7,415.3,465,415.4z"/>
<path class="st3" d="M444.2,443.7c-0.8,0-1.7-0.2-2.4-0.6l-11.5-6.6c-0.3-0.2-0.6-0.4-0.8-0.7c-0.2-0.3-0.3-0.7-0.4-1
	c0-0.3,0.1-0.6,0.3-0.8c0.2-0.3,0.4-0.5,0.7-0.6l12.1-7c0.7-0.3,1.4-0.5,2.2-0.5c0.7,0,1.5,0.2,2.1,0.6l11.5,6.6
	c0.3,0.2,0.6,0.4,0.8,0.7c0.2,0.3,0.3,0.7,0.4,1c0,0.3-0.1,0.6-0.3,0.8s-0.4,0.5-0.7,0.6l-12.1,7
	C445.6,443.5,444.9,443.7,444.2,443.7z M444,427c-0.5,0-0.9,0.1-1.3,0.3l-12.1,7c-0.1,0.1-0.3,0.2-0.3,0.4c0,0.2,0.2,0.5,0.6,0.7
	l11.5,6.6c0.5,0.3,1,0.4,1.6,0.4c0.5,0,1.1-0.1,1.6-0.3l12.1-7c0.1-0.1,0.3-0.2,0.3-0.4c0-0.2-0.2-0.5-0.6-0.7l-11.5-6.7
	C445.3,427.1,444.6,427,444,427L444,427z"/>
<path class="st2" d="M424.8,456.2c-0.9,0-1.7-0.2-2.5-0.6l-12.1-7c-0.3-0.2-0.6-0.4-0.8-0.7c-0.2-0.3-0.3-0.7-0.4-1.1
	c0-0.3,0.1-0.6,0.3-0.9c0.2-0.3,0.4-0.5,0.7-0.6l12.7-7.3c0.7-0.3,1.5-0.5,2.3-0.5s1.6,0.2,2.2,0.6l12.1,7c0.3,0.2,0.6,0.4,0.9,0.7
	c0.2,0.3,0.3,0.7,0.4,1.1c0,0.3-0.1,0.6-0.3,0.9c-0.2,0.3-0.4,0.5-0.7,0.6l-12.7,7.3C426.1,456.1,425.5,456.2,424.8,456.2z
	 M424.5,438.7c-0.5,0-1,0.1-1.4,0.3l-12.7,7.3c-0.1,0.1-0.4,0.2-0.4,0.5s0.2,0.5,0.7,0.8l12.1,7c0.5,0.3,1.1,0.4,1.6,0.5
	c0.6,0,1.1-0.1,1.7-0.3l12.7-7.3c0.1-0.1,0.4-0.3,0.4-0.5s-0.2-0.5-0.7-0.7l-12.1-7C425.9,438.9,425.2,438.7,424.5,438.7z"/>
<path class="st2" d="M404.5,467.9c-0.9,0-1.7-0.2-2.5-0.6l-12.1-7c-0.3-0.2-0.6-0.4-0.9-0.7c-0.2-0.3-0.3-0.7-0.4-1.1
	c0-0.3,0.1-0.6,0.3-0.9c0.2-0.3,0.4-0.5,0.7-0.6l12.7-7.3c0.7-0.3,1.5-0.5,2.3-0.5s1.6,0.2,2.3,0.6l12.1,7c0.3,0.2,0.6,0.4,0.9,0.7
	c0.2,0.3,0.3,0.7,0.4,1.1c0,0.3-0.1,0.6-0.3,0.9c-0.2,0.3-0.4,0.5-0.7,0.6l-12.7,7.3C405.9,467.8,405.2,467.9,404.5,467.9z
	 M404.3,450.4c-0.5,0-1,0.1-1.4,0.3l-12.7,7.3c-0.1,0.1-0.4,0.2-0.4,0.5c0,0.2,0.2,0.5,0.7,0.8l12.1,7c0.5,0.3,1.1,0.4,1.6,0.5
	c0.6,0,1.1-0.1,1.7-0.3l12.7-7.3c0.1-0.1,0.4-0.2,0.4-0.5s-0.2-0.5-0.7-0.7l-12.1-7C405.6,450.5,405,450.4,404.3,450.4z"/>
<path class="st2" d="M384.4,479.6c-0.9,0-1.7-0.2-2.5-0.6l-12.1-7c-0.3-0.2-0.6-0.4-0.9-0.7c-0.2-0.3-0.3-0.7-0.4-1.1
	c0-0.3,0.1-0.6,0.3-0.9c0.2-0.3,0.4-0.5,0.7-0.6l12.7-7.3c0.7-0.3,1.5-0.5,2.3-0.5s1.6,0.2,2.3,0.6l12.1,7c0.3,0.2,0.6,0.4,0.9,0.7
	c0.2,0.3,0.3,0.7,0.4,1.1c0,0.3-0.1,0.6-0.3,0.9c-0.2,0.3-0.4,0.5-0.7,0.6l-12.7,7.3C385.8,479.5,385.1,479.6,384.4,479.6z
	 M384.1,462.1c-0.5,0-1,0.1-1.4,0.3l-12.7,7.3c-0.1,0.1-0.4,0.2-0.4,0.5c0,0.2,0.2,0.5,0.7,0.7l12.1,7c0.5,0.3,1.1,0.4,1.6,0.5
	c0.6,0,1.1-0.1,1.7-0.3l12.7-7.3c0.1-0.1,0.4-0.2,0.4-0.5c0-0.2-0.2-0.5-0.7-0.8l-12.2-7C385.4,462.2,384.7,462.1,384.1,462.1
	L384.1,462.1z"/>
<path class="st2" d="M364.1,491.3c-0.9,0-1.7-0.2-2.5-0.6l-12.1-7c-0.3-0.2-0.6-0.4-0.8-0.7c-0.2-0.3-0.3-0.7-0.4-1.1
	c0-0.3,0.1-0.6,0.3-0.9c0.2-0.3,0.4-0.5,0.7-0.6l12.7-7.3c0.7-0.3,1.5-0.5,2.3-0.5s1.6,0.2,2.2,0.6l12.1,7c0.3,0.2,0.6,0.4,0.9,0.7
	c0.2,0.3,0.3,0.7,0.4,1.1c0,0.3-0.1,0.6-0.3,0.9c-0.2,0.3-0.4,0.5-0.7,0.6l-12.7,7.3C365.5,491.1,364.8,491.3,364.1,491.3z
	 M363.8,473.8c-0.5,0-1,0.1-1.4,0.3l-12.7,7.3c-0.1,0.1-0.4,0.2-0.4,0.5c0,0.2,0.2,0.5,0.6,0.7l12.1,7c0.5,0.3,1.1,0.4,1.6,0.5
	c0.6,0,1.1-0.1,1.7-0.3l12.7-7.3c0.1-0.1,0.4-0.2,0.4-0.5c0-0.2-0.2-0.5-0.7-0.8l-12.1-7C365.2,473.9,364.5,473.7,363.8,473.8z"/>
<path class="st2" d="M343.8,503c-0.9,0-1.7-0.2-2.5-0.6l-12.1-7c-0.3-0.2-0.6-0.4-0.9-0.7c-0.2-0.3-0.3-0.7-0.4-1.1
	c0-0.3,0.1-0.6,0.3-0.9c0.2-0.3,0.4-0.5,0.7-0.6l12.7-7.3c0.7-0.3,1.5-0.5,2.3-0.5s1.6,0.2,2.2,0.6l12.1,6.9
	c0.3,0.2,0.6,0.4,0.8,0.8c0.2,0.3,0.3,0.7,0.4,1.1c0,0.3-0.1,0.6-0.3,0.9c-0.2,0.3-0.4,0.5-0.7,0.6l-12.7,7.3
	C345.2,502.8,344.5,503,343.8,503z M343.6,485.4c-0.5,0-1,0.1-1.4,0.3l-12.7,7.3c-0.1,0.1-0.4,0.3-0.4,0.5s0.2,0.5,0.7,0.7l12.1,7
	c0.5,0.3,1.1,0.4,1.6,0.5c0.6,0,1.1-0.1,1.7-0.3l12.7-7.3c0.1-0.1,0.4-0.2,0.4-0.5c0-0.2-0.2-0.5-0.6-0.8l-12.1-7
	C344.9,485.6,344.3,485.4,343.6,485.4z"/>
<path class="st2" d="M516.8,380.9c-0.9,0-1.7-0.2-2.5-0.6l-12.1-7c-0.3-0.2-0.6-0.4-0.9-0.7c-0.2-0.3-0.3-0.7-0.4-1.1
	c0-0.3,0.1-0.6,0.3-0.9c0.2-0.3,0.4-0.5,0.7-0.6l12.7-7.3c0.7-0.3,1.5-0.5,2.3-0.4c0.8,0,1.6,0.3,2.2,0.7l12.1,7
	c0.3,0.2,0.6,0.4,0.9,0.7c0.2,0.3,0.3,0.7,0.4,1.1c0,0.3-0.1,0.6-0.3,0.9s-0.4,0.5-0.7,0.6l-12.7,7.3
	C518.2,380.8,517.5,380.9,516.8,380.9z M516.6,363.4c-0.5,0-1,0.1-1.4,0.3l-12.7,7.3c-0.1,0.1-0.4,0.2-0.4,0.5
	c0,0.2,0.2,0.5,0.7,0.8l12.1,7c0.5,0.3,1.1,0.4,1.6,0.5c0.6,0,1.1-0.1,1.7-0.3l12.7-7.3c0.1-0.1,0.4-0.2,0.4-0.5s-0.2-0.5-0.7-0.7
	l-12.1-7C517.9,363.5,517.2,363.3,516.6,363.4z"/>
<path class="st2" d="M496.6,392.6c-0.9,0-1.7-0.2-2.5-0.6l-12.1-7c-0.3-0.2-0.6-0.4-0.9-0.7c-0.2-0.3-0.3-0.7-0.4-1.1
	c0-0.3,0.1-0.6,0.3-0.9c0.2-0.3,0.4-0.5,0.7-0.6l12.7-7.3c0.7-0.3,1.5-0.5,2.3-0.5s1.6,0.2,2.3,0.6l12.1,7c0.3,0.2,0.6,0.4,0.9,0.7
	s0.3,0.7,0.4,1.1c0,0.3-0.1,0.6-0.3,0.9s-0.4,0.5-0.7,0.6l-12.7,7.3C498,392.4,497.3,392.6,496.6,392.6z M496.3,375
	c-0.5,0-1,0.1-1.4,0.3l-12.7,7.3c-0.1,0.1-0.4,0.2-0.4,0.5c0,0.2,0.2,0.5,0.7,0.8l12.1,7c0.5,0.3,1.1,0.4,1.6,0.5
	c0.6,0,1.1-0.1,1.7-0.3l12.7-7.3c0.1-0.1,0.4-0.2,0.4-0.5c0-0.2-0.2-0.5-0.7-0.8l-12.1-7C497.7,375.2,497,375,496.3,375z"/>
<path class="st2" d="M476.3,404.2c-0.9,0-1.7-0.2-2.5-0.6l-12.1-7c-0.3-0.2-0.6-0.4-0.8-0.7c-0.2-0.3-0.3-0.7-0.4-1.1
	c0-0.3,0.1-0.6,0.3-0.9c0.2-0.3,0.4-0.5,0.7-0.6l12.7-7.3c0.7-0.3,1.5-0.5,2.3-0.5s1.6,0.2,2.2,0.6l12.1,7c0.3,0.2,0.6,0.4,0.9,0.7
	c0.2,0.3,0.3,0.7,0.4,1.1c0,0.3-0.1,0.6-0.3,0.9c-0.2,0.3-0.4,0.5-0.7,0.6l-12.7,7.3C477.7,404.1,477,404.3,476.3,404.2z
	 M476.1,386.7c-0.5,0-1,0.1-1.4,0.3l-12.7,7.3c-0.1,0.1-0.4,0.2-0.4,0.5c0,0.2,0.2,0.5,0.6,0.7l12.1,7c0.5,0.3,1.1,0.4,1.6,0.5
	c0.6,0,1.1-0.1,1.7-0.3l12.7-7.3c0.1-0.1,0.4-0.2,0.4-0.5c0-0.2-0.2-0.5-0.7-0.8l-12.1-7C477.4,386.9,476.8,386.7,476.1,386.7
	L476.1,386.7z"/>
<path class="st3" d="M456.1,415.9c-0.9,0-1.7-0.2-2.5-0.6l-12.1-7c-0.3-0.2-0.6-0.4-0.8-0.7c-0.2-0.3-0.3-0.7-0.4-1.1
	c0-0.3,0.1-0.6,0.3-0.9c0.2-0.3,0.4-0.5,0.7-0.6l12.7-7.3c0.7-0.3,1.5-0.5,2.3-0.5s1.6,0.2,2.2,0.6l12.1,7c0.3,0.2,0.6,0.4,0.9,0.7
	c0.2,0.3,0.3,0.7,0.4,1.1c0,0.3-0.1,0.6-0.3,0.9s-0.4,0.5-0.7,0.6l-12.7,7.3C457.5,415.8,456.8,415.9,456.1,415.9z M455.9,398.4
	c-0.5,0-1,0.1-1.4,0.3l-12.7,7.3c-0.1,0.1-0.4,0.3-0.4,0.5s0.2,0.5,0.7,0.7l12.1,7c0.5,0.3,1.1,0.5,1.6,0.5s1.1-0.1,1.7-0.3
	l12.7-7.3c0.1-0.1,0.4-0.2,0.4-0.5c0-0.2-0.2-0.5-0.6-0.8l-12.1-7C457.2,398.6,456.5,398.4,455.9,398.4z"/>
<path class="st2" d="M412.4,395.2c-0.9,0-1.7-0.2-2.5-0.6l-12.1-7c-0.3-0.2-0.6-0.4-0.9-0.7c-0.2-0.3-0.3-0.7-0.4-1.1
	c0-0.3,0.1-0.6,0.3-0.9c0.2-0.3,0.4-0.5,0.7-0.6l12.7-7.3c0.7-0.3,1.5-0.5,2.3-0.5s1.6,0.2,2.2,0.6l12.1,7c0.3,0.2,0.6,0.4,0.8,0.7
	c0.2,0.3,0.3,0.7,0.4,1.1c0,0.3-0.1,0.6-0.3,0.9c-0.2,0.3-0.4,0.5-0.7,0.6l-12.7,7.3C413.8,395,413.1,395.2,412.4,395.2z
	 M412.2,377.7c-0.5,0-1,0.1-1.4,0.3l-12.7,7.3c-0.1,0.1-0.4,0.3-0.4,0.5s0.2,0.5,0.7,0.7l12.1,7c0.5,0.3,1.1,0.4,1.6,0.5
	c0.6,0,1.1-0.1,1.7-0.3l12.7-7.3c0.1-0.1,0.4-0.2,0.4-0.5c0-0.2-0.2-0.5-0.7-0.8l-12-7C413.6,377.8,412.9,377.7,412.2,377.7z"/>
<path class="st2" d="M392.1,406.9c-0.9,0-1.7-0.2-2.5-0.6l-12-7c-0.3-0.2-0.6-0.4-0.8-0.7c-0.2-0.3-0.3-0.7-0.4-1.1
	c0-0.3,0.1-0.6,0.3-0.9c0.2-0.3,0.4-0.5,0.7-0.6l12.7-7.3c0.7-0.3,1.5-0.5,2.3-0.5s1.6,0.2,2.2,0.6l12.1,7c0.3,0.2,0.6,0.4,0.8,0.8
	c0.2,0.3,0.3,0.7,0.4,1.1c0,0.3-0.1,0.6-0.3,0.9c-0.2,0.3-0.4,0.5-0.7,0.6l-12.7,7.3C393.6,406.7,392.9,406.9,392.1,406.9z
	 M391.9,389.3c-0.5,0-1,0.1-1.4,0.3l-12.7,7.3c-0.1,0.1-0.4,0.3-0.4,0.5s0.2,0.5,0.7,0.8l12.1,6.9c0.5,0.3,1.1,0.4,1.6,0.5
	c0.6,0,1.1-0.1,1.7-0.3l12.7-7.3c0.1-0.1,0.4-0.2,0.4-0.5c0-0.2-0.2-0.5-0.7-0.8l-12.1-7C393.2,389.5,392.6,389.3,391.9,389.3z"/>
<path class="st2" d="M390.2,430.8c-0.9,0-1.8-0.2-2.5-0.6l-12.1-7c-0.3-0.2-0.6-0.4-0.9-0.7c-0.2-0.3-0.3-0.7-0.4-1.1
	c0-0.3,0.1-0.6,0.3-0.9c0.2-0.3,0.4-0.5,0.7-0.6l12.7-7.3c0.7-0.3,1.5-0.5,2.3-0.5s1.6,0.2,2.2,0.6l12.1,7c0.3,0.2,0.6,0.4,0.9,0.7
	c0.2,0.3,0.3,0.7,0.4,1.1c0,0.3-0.1,0.6-0.3,0.9c-0.2,0.3-0.4,0.5-0.7,0.6l-12.7,7.3C391.6,430.6,390.9,430.8,390.2,430.8z
	 M390,413.2c-0.5,0-1,0.1-1.4,0.3l-12.7,7.3c-0.1,0.1-0.4,0.2-0.4,0.5c0,0.2,0.2,0.5,0.7,0.8l12.1,7c0.5,0.3,1.1,0.4,1.6,0.5
	c0.6,0,1.2-0.1,1.7-0.3l12.7-7.3c0.1-0.1,0.4-0.2,0.4-0.5c0-0.2-0.2-0.5-0.7-0.8l-12.1-7C391.3,413.4,390.7,413.2,390,413.2
	L390,413.2z"/>
<path class="st2" d="M351.7,430.2c-0.9,0-1.7-0.2-2.5-0.6l-12.1-7c-0.3-0.2-0.6-0.4-0.8-0.7c-0.2-0.3-0.3-0.7-0.4-1.1
	c0-0.3,0.1-0.6,0.3-0.9c0.2-0.3,0.4-0.5,0.7-0.6l12.7-7.3c0.7-0.3,1.5-0.5,2.3-0.5s1.6,0.2,2.2,0.6l12.1,7c0.3,0.2,0.6,0.4,0.8,0.7
	c0.2,0.3,0.3,0.7,0.4,1.1c0,0.3-0.1,0.6-0.3,0.9s-0.4,0.5-0.7,0.6l-12.7,7.3C353.1,430.1,352.4,430.3,351.7,430.2z M351.4,412.7
	c-0.5,0-1,0.1-1.4,0.3l-12.7,7.3c-0.1,0.1-0.4,0.2-0.4,0.5c0,0.2,0.2,0.5,0.7,0.8l12.1,7c0.5,0.3,1.1,0.4,1.6,0.5
	c0.6,0,1.1-0.1,1.7-0.3l12.7-7.3c0.1-0.1,0.4-0.2,0.4-0.5c0-0.2-0.2-0.5-0.6-0.8l-12.1-7C352.7,412.9,352.1,412.7,351.4,412.7z"/>
<path class="st2" d="M331.4,441.9c-0.9,0-1.7-0.2-2.5-0.6l-12.1-7c-0.3-0.2-0.6-0.4-0.8-0.7c-0.2-0.3-0.3-0.7-0.4-1.1
	c0-0.3,0.1-0.6,0.3-0.9c0.2-0.3,0.4-0.5,0.7-0.6l12.7-7.3c0.7-0.3,1.5-0.5,2.3-0.5s1.6,0.2,2.3,0.6l12.1,7c0.3,0.2,0.6,0.4,0.9,0.7
	c0.2,0.3,0.3,0.7,0.4,1.1c0,0.3-0.1,0.6-0.3,0.9c-0.2,0.3-0.4,0.5-0.7,0.6l-12.7,7.3C332.8,441.8,332.1,441.9,331.4,441.9z
	 M331.2,424.4c-0.5,0-1,0.1-1.4,0.3l-12.7,7.3c-0.1,0.1-0.4,0.2-0.4,0.5c0,0.2,0.2,0.5,0.7,0.8l12.1,7c0.5,0.3,1.1,0.4,1.6,0.5
	c0.6,0,1.1-0.1,1.7-0.3l12.7-7.3c0.1-0.1,0.4-0.3,0.4-0.5s-0.2-0.5-0.7-0.8l-12.1-7C332.5,424.6,331.9,424.4,331.2,424.4z"/>
<path class="st2" d="M311.2,453.6c-0.9,0-1.8-0.2-2.5-0.6l-12.1-7c-0.3-0.2-0.6-0.4-0.8-0.7c-0.2-0.3-0.3-0.7-0.4-1.1
	c0-0.3,0.1-0.6,0.3-0.9c0.2-0.3,0.4-0.5,0.7-0.6l12.7-7.3c0.7-0.3,1.5-0.5,2.3-0.5s1.6,0.2,2.3,0.6l12.1,7c0.3,0.2,0.6,0.4,0.9,0.7
	c0.2,0.3,0.3,0.7,0.4,1.1c0,0.3-0.1,0.6-0.3,0.9c-0.2,0.3-0.4,0.5-0.7,0.6l-12.7,7.3C312.6,453.4,311.9,453.6,311.2,453.6z M311,436
	c-0.5,0-1,0.1-1.4,0.3l-12.7,7.3c-0.1,0.1-0.4,0.2-0.4,0.5c0,0.2,0.2,0.5,0.7,0.8l12.1,7c0.5,0.3,1.1,0.4,1.6,0.5
	c0.6,0,1.1-0.1,1.7-0.3l12.7-7.3c0.1-0.1,0.4-0.3,0.4-0.5s-0.2-0.5-0.7-0.7l-12.1-7C312.3,436.2,311.7,436,311,436z"/>
<path class="st3" d="M423.8,479c-0.9,0-1.7-0.2-2.4-0.6l-11.8-6.8c-0.3-0.2-0.6-0.4-0.8-0.7c-0.2-0.3-0.3-0.7-0.4-1.1
	c0-0.3,0.1-0.6,0.3-0.9c0.2-0.3,0.4-0.5,0.7-0.6l93.7-54.1c0.7-0.3,1.5-0.5,2.3-0.5s1.5,0.2,2.2,0.6l11.8,6.8
	c0.3,0.2,0.6,0.4,0.8,0.7c0.2,0.3,0.3,0.7,0.4,1.1c0,0.3-0.1,0.6-0.3,0.9s-0.4,0.5-0.7,0.6l-93.7,54.1
	C425.2,478.9,424.5,479.1,423.8,479z M504.9,415c-0.5,0-0.9,0.1-1.4,0.3l-93.7,54.1c-0.1,0.1-0.4,0.2-0.4,0.4c0,0.2,0.2,0.5,0.6,0.7
	l11.8,6.8c0.5,0.3,1,0.4,1.6,0.5c0.6,0,1.1-0.1,1.6-0.3l93.7-54.1c0.1-0.1,0.4-0.2,0.4-0.4s-0.2-0.5-0.6-0.7l-11.8-6.8
	C506.3,415.2,505.6,415,504.9,415L504.9,415z"/>
<path class="st2" d="M494,546.9c-1.5,0-2.9-0.3-4.2-1l-78.5-45.3c-0.5-0.2-1-0.6-1.4-1.1c-0.3-0.5-0.6-1.1-0.6-1.6s0.2-0.9,0.4-1.3
	c0.3-0.4,0.6-0.7,1.1-0.9L529.7,427c1.2-0.5,2.5-0.8,3.8-0.8s2.6,0.4,3.7,1l78.5,45.3c0.5,0.2,1,0.6,1.4,1.1
	c0.3,0.5,0.6,1.1,0.6,1.7c0,0.5-0.2,0.9-0.4,1.3s-0.6,0.7-1.1,0.9l-118.9,68.7C496.3,546.7,495.2,547,494,546.9z M533.1,427.3
	c-0.9,0-1.8,0.2-2.7,0.6l-118.9,68.7c-0.2,0.1-0.5,0.3-0.6,0.5c-0.2,0.2-0.3,0.5-0.3,0.7c0,0.6,0.5,1.2,1.4,1.7l78.5,45.3
	c1,0.5,2,0.8,3.1,0.9c1.1,0,2.2-0.2,3.2-0.6l118.9-68.7c0.2-0.1,0.4-0.3,0.6-0.5s0.2-0.5,0.3-0.7c0-0.6-0.5-1.2-1.4-1.7l-78.5-45.3
	C535.6,427.7,534.4,427.3,533.1,427.3L533.1,427.3z"/>
<path class="st2" d="M403.1,603.8c-3.7,0-7.4-0.9-10.7-2.7l-204-117.7c-3-1.8-4.8-4.1-4.8-6.5c0.1-1.1,0.4-2.1,1-3s1.4-1.6,2.4-2.1
	l302.9-174.9c4.9-2.8,13.4-2.4,18.9,0.8l204,117.8c3,1.8,4.8,4.1,4.8,6.5c-0.1,1.1-0.4,2.1-1,3s-1.5,1.6-2.4,2.1l-111.6,64.5
	c-0.3,0.2-0.6,0.4-0.8,0.7c-0.2,0.3-0.3,0.7-0.3,1l-0.2,2.2c0,0.9-0.2,1.7-0.7,2.4c-0.4,0.7-1,1.4-1.8,1.8L523,542.9
	c-0.3,0.2-0.6,0.3-0.9,0.3c-0.3,0-0.7,0-1-0.1s-0.6-0.2-0.9-0.5c-0.3-0.2-0.5-0.5-0.6-0.8c-0.2-0.3-0.3-0.7-0.3-1.1
	c-0.1-0.1-0.1-0.2-0.2-0.3c-0.1-0.1-0.2-0.1-0.3-0.2c-0.1,0-0.3-0.1-0.4-0.1s-0.3,0.1-0.4,0.1l-106.4,61.4
	C408.9,603.3,406,603.9,403.1,603.8z M498.2,296.3c-2.7-0.1-5.3,0.5-7.7,1.7L187.7,472.8c-0.8,0.4-1.5,0.9-2,1.6s-0.8,1.6-0.9,2.4
	c0,1.9,1.5,3.9,4.2,5.4L393,600c5.2,3,13.2,3.4,17.7,0.8l106.4-61.4c0.3-0.1,0.5-0.2,0.8-0.3c0.3,0,0.6,0,0.9,0.1
	c0.3,0.1,0.5,0.2,0.8,0.4c0.2,0.2,0.4,0.4,0.6,0.7c0,0.1,0.1,0.2,0.1,0.3s0,0.1,0,0.2c0,0.2,0.1,0.5,0.2,0.7
	c0.1,0.2,0.3,0.4,0.5,0.5s0.4,0.2,0.7,0.2c0.2,0,0.5-0.1,0.7-0.2l75.8-43.2c0.6-0.3,1-0.8,1.4-1.4c0.3-0.6,0.5-1.2,0.5-1.9l0.2-2.3
	c0-0.6,0.2-1.1,0.5-1.6s0.7-0.9,1.2-1.2L713.5,426c0.8-0.4,1.5-0.9,2-1.6s0.8-1.6,0.9-2.4c0-1.9-1.5-3.9-4.2-5.5l-204-117.8
	C505.2,297.1,501.7,296.2,498.2,296.3L498.2,296.3z"/>
<path class="st2" d="M778.8,654.3c-3.5,0.1-6.9-0.7-10-2.3l-77.1-44.5c-2.7-1.5-4.1-3.7-4.1-6.1c0-2.8,2.1-5.7,5.7-7.8L867.6,493
	c6.7-3.9,17-4.3,22.8-0.9l77.1,44.5c2.7,1.5,4.2,3.7,4.2,6.1c0,2.8-2.1,5.7-5.8,7.8L791.7,651C787.8,653.2,783.3,654.3,778.8,654.3z
	 M880.5,491c-4.3,0-8.5,1-12.3,3.1L694,594.7c-3.3,1.9-5.1,4.3-5.1,6.7c0,1.9,1.2,3.7,3.5,5l77.1,44.5c5.5,3.2,15.2,2.8,21.6-0.9
	l174.2-100.6c3.3-1.9,5.1-4.3,5.1-6.7c0-1.9-1.2-3.7-3.5-5l-77.1-44.5C886.9,491.7,883.7,490.9,880.5,491L880.5,491z"/>
<path class="st2" d="M778.8,664.9c-3.5,0.1-6.9-0.7-10-2.3l-77.1-44.5c-3-1.7-4.4-4.1-4.1-6.8v-10h1.2v10.1c-0.3,2.2,1,4.2,3.5,5.7
	l77.1,44.5c5.5,3.2,15.2,2.8,21.6-0.9l174.2-100.6c3.4-2,5.2-4.5,5.1-6.9v-10.4h1.2v10.3c0.1,2.9-2,5.8-5.8,8l-174,100.5
	C787.8,663.8,783.3,664.9,778.8,664.9z"/>
<path class="st2" d="M936.4,527.1c-0.5,0.3-1.1,0.4-1.7,0.4c-0.6,0-1.2-0.1-1.7-0.4c-0.1,0-0.2-0.1-0.3-0.2
	c-0.1-0.1-0.2-0.2-0.2-0.3c-0.1-0.1-0.1-0.3-0.1-0.4c0-0.1,0-0.3,0.1-0.4c0.1-0.1,0.1-0.3,0.2-0.4c0.1-0.1,0.2-0.2,0.4-0.2
	c0.5-0.3,1.1-0.4,1.7-0.4c0.6,0,1.2,0.1,1.7,0.4c0.1,0,0.2,0.1,0.3,0.2c0.1,0.1,0.2,0.2,0.2,0.3s0.1,0.3,0.1,0.4
	c0,0.1,0,0.3-0.1,0.4c0,0.1-0.1,0.3-0.2,0.4S936.5,527.1,936.4,527.1z"/>
<path class="st2" d="M926.9,523.6L908,512.7c-0.6-0.4-0.5-1,0.2-1.4c0.4-0.2,0.8-0.3,1.2-0.3s0.8,0.1,1.2,0.2l18.9,10.9
	c0.6,0.4,0.5,1-0.2,1.4c-0.4,0.2-0.8,0.3-1.2,0.3C927.7,523.8,927.3,523.8,926.9,523.6z"/>
<path class="st3" d="M221.4,703.2l-16.3-9.4v-32.9l16.3,9.4V703.2z"/>
<path class="st3" d="M221.4,670.1l-16.3-9.4l83-47.9l16.3,9.4L221.4,670.1z"/>
<path class="st2" d="M254.7,689.9c-0.1,0-0.2,0-0.3-0.1l-83-48c-0.1-0.1-0.2-0.1-0.2-0.2c-0.1-0.1-0.1-0.2-0.1-0.3s0-0.2,0.1-0.3
	s0.1-0.2,0.2-0.2l83-47.9c0.1-0.1,0.2-0.1,0.3-0.1s0.2,0,0.3,0.1l83,47.9c0.1,0,0.2,0.1,0.2,0.2c0.1,0.1,0.1,0.2,0.1,0.3
	s0,0.2-0.1,0.3s-0.1,0.2-0.2,0.2l-83,47.9C254.9,689.9,254.9,689.9,254.7,689.9z M173,641.4l81.8,47.2l81.8-47.2l-81.8-47.2
	L173,641.4z"/>
<path class="st2" d="M229.4,771.2l-57.9-33.4c-0.1-0.1-0.2-0.1-0.2-0.2c-0.1-0.1-0.1-0.2-0.1-0.3v-95.8h1.2v95.4l57.6,33.3
	L229.4,771.2z"/>
<path class="st2" d="M338.3,641.4h-1.2v29.5h1.2V641.4z"/>
<path class="st2" d="M255.4,688.3h-1.3v46.4h1.3V688.3z"/>
<path class="st3" d="M348.9,705.9l-11.9-6.8l60.3-34.8l11.9,6.8L348.9,705.9z"/>
<path class="st2" d="M373.1,720.5c-0.1,0-0.2,0-0.3-0.1l-60.3-34.8c-0.1-0.1-0.2-0.1-0.2-0.2c-0.1-0.1-0.1-0.2-0.1-0.3
	s0-0.2,0.1-0.3s0.1-0.2,0.2-0.2l60.3-34.8c0.1-0.1,0.2-0.1,0.3-0.1s0.2,0,0.3,0.1l60.3,34.9c0.1,0.1,0.2,0.2,0.3,0.4
	c0,0.2,0,0.3-0.1,0.5c-0.1,0.1-0.1,0.2-0.2,0.2l-60.3,34.8C373.3,720.5,373.2,720.5,373.1,720.5z M314,685.1l59.1,34.2l59.1-34.2
	L373.1,651L314,685.1z"/>
<path class="st2" d="M313.4,685.1h-1.2v28.1h1.2V685.1z"/>
<path class="st2" d="M351,776.1l-0.6,1.1l22.4,12.9l0.6-1.1L351,776.1z"/>
<path class="st2" d="M373.4,790.1l-0.6-1.1l60-34.7V685h1.2v69.7c0,0.1,0,0.2-0.1,0.3s-0.1,0.2-0.2,0.2L373.4,790.1z"/>
<path class="st2" d="M373.7,719.9h-1.2v69.7h1.2V719.9z"/>
<path class="st2" d="M249.3,760.1H248v54.8h1.2v-54.8H249.3z"/>
<path class="st2" d="M259.7,766.1h-1.2v56h1.2V766.1z"/>
<path class="st2" d="M320.1,717.7l-71.9,41.6l0.6,1.1l71.9-41.6L320.1,717.7z"/>
<path class="st2" d="M330.9,724L259,765.6l0.6,1.1l71.9-41.6L330.9,724z"/>
<path class="st3" d="M278.3,777.8c-0.1,0-0.2,0-0.3-0.1l-48.7-28.5c-0.1-0.1-0.2-0.1-0.2-0.2c-0.1-0.1-0.1-0.2-0.1-0.3
	s0-0.2,0.1-0.3s0.1-0.2,0.2-0.2l72.5-41.8c0.1-0.1,0.2-0.1,0.3-0.1s0.2,0,0.3,0.1l48.7,28.5c0.1,0.1,0.2,0.1,0.2,0.2
	c0.1,0.1,0.1,0.2,0.1,0.3s0,0.2-0.1,0.3s-0.1,0.2-0.2,0.2l-72.4,41.8C278.5,777.8,278.4,777.8,278.3,777.8z M230.7,748.7l47.5,27.8
	l71.2-41.1L302,707.6L230.7,748.7z"/>
<path class="st3" d="M277.9,833.5l-48.7-28.6c-0.1-0.1-0.2-0.1-0.2-0.2c-0.1-0.1-0.1-0.2-0.1-0.3v-55.7h1.2v55.4l48.4,28.3
	L277.9,833.5z"/>
<path class="st3" d="M278.6,833.5l-0.6-1.1l72.1-41.7v-55.4h1.2V791c0,0.1,0,0.2-0.1,0.3s-0.1,0.2-0.2,0.2L278.6,833.5z"/>
<path class="st3" d="M278.9,777.2h-1.2v55.7h1.2V777.2z"/>
<path class="st2" d="M388.2,751.1c-0.1,0-0.2,0-0.3-0.1s-0.2-0.1-0.2-0.2c-0.1-0.1-0.1-0.2-0.1-0.3v-11.4c0-0.1,0-0.2,0.1-0.3
	s0.1-0.2,0.2-0.2l32.8-18.9c0.1-0.1,0.2-0.1,0.3-0.1c0.1,0,0.2,0,0.3,0.1c0.1,0.1,0.2,0.1,0.2,0.2c0.1,0.1,0.1,0.2,0.1,0.3v11.3
	c0,0.1,0,0.2-0.1,0.3s-0.1,0.2-0.2,0.2l-32.8,19C388.5,751.1,388.4,751.1,388.2,751.1z M388.9,739.5v9.9l31.6-18.3v-9.9L388.9,739.5
	z"/>
<path class="st2" d="M809.1,240.4c-0.7,0-1.4-0.2-2-0.6c-1.2-0.8-2.2-1.8-3-3.1c-0.7-1.3-1.1-2.7-1.2-4.1c-0.1-0.8,0.1-1.6,0.5-2.2
	c0.5-0.6,1.1-1.1,1.9-1.2c0.4-0.1,0.8,0,1.2,0.1s0.8,0.3,1.1,0.6c1.2,0.8,2.2,1.8,3,3.1c0.7,1.3,1.1,2.7,1.2,4.1
	c0.1,0.6,0,1.2-0.3,1.7s-0.6,1-1.1,1.3C810,240.3,809.6,240.4,809.1,240.4z M805.7,230.4c-0.2,0-0.5,0.1-0.7,0.2
	c-0.3,0.2-0.5,0.5-0.7,0.9s-0.2,0.7-0.2,1.1c0.1,1.2,0.4,2.4,1.1,3.5c0.6,1.1,1.5,2,2.5,2.6c0.3,0.3,0.6,0.5,1,0.5
	c0.4,0.1,0.8,0,1.1-0.2s0.6-0.5,0.7-0.9c0.1-0.4,0.2-0.8,0.1-1.1c-0.1-1.2-0.4-2.4-1.1-3.5c-0.6-1.1-1.5-2-2.5-2.6
	C806.7,230.6,806.2,230.4,805.7,230.4z"/>
<path class="st3" d="M823.4,248.7c-0.7,0-1.4-0.2-2-0.6c-1.2-0.8-2.2-1.8-2.9-3.1s-1.1-2.7-1.2-4.1c-0.1-0.6,0-1.2,0.2-1.7
	c0.3-0.5,0.7-1,1.2-1.3s1.1-0.4,1.7-0.4c0.6,0,1.2,0.3,1.6,0.7c1.2,0.8,2.2,1.8,3,3.1s1.1,2.7,1.2,4.1c0.1,0.6-0.1,1.2-0.3,1.7
	c-0.3,0.5-0.6,1-1.1,1.3C824.4,248.6,823.9,248.7,823.4,248.7z M820,238.8c-0.2,0-0.5,0.1-0.7,0.2c-0.3,0.2-0.5,0.5-0.7,0.9
	c-0.1,0.3-0.2,0.7-0.1,1.1c0.1,1.2,0.4,2.4,1.1,3.5s1.5,2,2.5,2.6c0.3,0.2,0.6,0.4,1,0.4s0.7,0,1.1-0.1c0.3-0.2,0.5-0.5,0.7-0.9
	c0.1-0.3,0.2-0.7,0.1-1.1c-0.1-1.2-0.4-2.4-1.1-3.5c-0.6-1.1-1.5-2-2.5-2.6C821,238.9,820.5,238.7,820,238.8L820,238.8z"/>
<path class="st3" d="M839.9,253.6c0,2.4-1.7,3.5-3.8,2.2c-1.1-0.7-2.1-1.7-2.7-2.9c-0.7-1.2-1.1-2.5-1.1-3.8c0-2.4,1.7-3.4,3.9-2.2
	c1.1,0.7,2.1,1.7,2.7,2.9C839.4,251,839.8,252.3,839.9,253.6z"/>
<path class="st2" d="M936.2,263.3H935v13.6h1.2V263.3z"/>
<path class="st2" d="M943.3,259.2h-1.2v13.6h1.2V259.2z"/>
<path class="st3" d="M1000.1,237.4L957.5,262v-6.3l42.6-24.6V237.4z"/>
<path class="st2" d="M809.1,272.6c-0.7,0-1.4-0.2-2-0.6c-1.2-0.8-2.2-1.8-3-3.1c-0.7-1.3-1.1-2.7-1.2-4.1c-0.1-0.6,0-1.2,0.2-1.7
	c0.3-0.5,0.7-1,1.2-1.3s1.1-0.4,1.7-0.4c0.6,0,1.2,0.3,1.6,0.7c1.2,0.8,2.2,1.8,3,3.1c0.7,1.3,1.1,2.7,1.2,4.1
	c0.1,0.6,0,1.2-0.3,1.7s-0.6,1-1.1,1.3C810.1,272.5,809.6,272.6,809.1,272.6z M805.7,262.6c-0.2,0-0.5,0.1-0.7,0.2
	c-0.3,0.2-0.5,0.5-0.7,0.9s-0.2,0.7-0.2,1.1c0.1,1.2,0.4,2.4,1.1,3.5c0.6,1.1,1.5,2,2.5,2.6c0.3,0.2,0.6,0.4,1,0.4s0.7,0,1.1-0.1
	c0.3-0.2,0.5-0.5,0.7-0.9c0.1-0.3,0.2-0.7,0.2-1.1c-0.1-1.2-0.4-2.4-1.1-3.5c-0.6-1.1-1.5-2-2.5-2.6
	C806.7,262.8,806.2,262.6,805.7,262.6z"/>
<path class="st3" d="M825.6,277.5c0,2.4-1.7,3.5-3.9,2.2c-1.1-0.7-2-1.7-2.7-2.9c-0.7-1.2-1.1-2.5-1.1-3.8c0-2.4,1.7-3.5,3.8-2.2
	c1.1,0.7,2.1,1.7,2.7,2.9C825.1,274.8,825.5,276.1,825.6,277.5z"/>
<path class="st3" d="M837.8,289.1c-0.7,0-1.4-0.2-2-0.6c-1.2-0.8-2.2-1.8-3-3.1c-0.7-1.3-1.1-2.7-1.2-4.1c-0.1-0.6,0-1.2,0.2-1.7
	c0.3-0.5,0.7-1,1.2-1.3s1.1-0.4,1.7-0.4c0.6,0,1.2,0.3,1.6,0.7c1.2,0.8,2.2,1.8,2.9,3.1c0.7,1.3,1.1,2.7,1.2,4.1
	c0.1,0.6,0,1.2-0.3,1.7s-0.6,1-1.1,1.3C838.7,289,838.2,289.1,837.8,289.1z M834.3,279.1c-0.2,0-0.5,0-0.7,0.2
	c-0.3,0.2-0.5,0.5-0.7,0.9c-0.1,0.3-0.2,0.7-0.1,1.1c0.1,1.2,0.4,2.4,1.1,3.5c0.6,1.1,1.5,2,2.5,2.6c0.3,0.2,0.6,0.4,1,0.4
	s0.7,0,1.1-0.1c0.3-0.2,0.5-0.5,0.7-0.9c0.1-0.3,0.2-0.7,0.2-1.1c-0.1-1.2-0.4-2.4-1.1-3.5c-0.6-1.1-1.5-2-2.5-2.6
	C835.3,279.3,834.8,279.2,834.3,279.1z"/>
<path class="st2" d="M936.2,296.7H935v12.4h1.2V296.7z"/>
<path class="st2" d="M943.3,292.6h-1.2V305h1.2V292.6z"/>
<path class="st2" d="M957.5,294.8c-0.1,0-0.2,0-0.3-0.1s-0.2-0.1-0.2-0.2c-0.1-0.1-0.1-0.2-0.1-0.3v-6.3c0-0.1,0-0.2,0.1-0.3
	c0.1-0.1,0.1-0.2,0.2-0.2l42.6-24.6c0.1,0,0.1-0.1,0.2-0.1c0.1,0,0.2,0,0.2,0c0.1,0,0.1,0.1,0.2,0.1c0.1,0,0.1,0.1,0.2,0.2
	c0.1,0.1,0.1,0.2,0.1,0.3v6.3c0,0.1,0,0.2-0.1,0.3c-0.1,0.1-0.1,0.2-0.2,0.2l-42.6,24.6C957.7,294.8,957.6,294.8,957.5,294.8z
	 M958.1,288.2v4.9l41.4-23.9v-4.9L958.1,288.2z"/>
<path class="st2" d="M809.1,305.3c-0.7,0-1.4-0.2-2-0.6c-1.2-0.8-2.2-1.8-3-3.1s-1.1-2.7-1.2-4.1c-0.1-0.8,0.1-1.6,0.5-2.2
	c0.5-0.6,1.1-1.1,1.9-1.2c0.4-0.1,0.8,0,1.2,0.1s0.8,0.3,1.1,0.6c1.2,0.8,2.2,1.8,3,3.1c0.7,1.3,1.1,2.7,1.2,4.1
	c0.1,0.6-0.1,1.2-0.3,1.7c-0.3,0.5-0.6,1-1.1,1.3C810,305.1,809.6,305.2,809.1,305.3z M805.7,295.3c-0.2,0-0.5,0.1-0.7,0.2
	c-0.3,0.2-0.5,0.5-0.7,0.9c-0.1,0.3-0.2,0.7-0.2,1.1c0.1,1.2,0.4,2.4,1.1,3.5c0.6,1.1,1.5,2,2.5,2.6c0.3,0.2,0.6,0.4,1,0.4
	s0.7,0,1.1-0.1c0.3-0.2,0.5-0.5,0.7-0.9c0.1-0.3,0.2-0.7,0.2-1.1c-0.1-1.2-0.4-2.4-1.1-3.5c-0.6-1.1-1.5-2-2.5-2.6
	C806.7,295.5,806.2,295.3,805.7,295.3L805.7,295.3z"/>
<path class="st3" d="M825.6,310.1c0,2.4-1.7,3.5-3.9,2.2c-1.1-0.7-2-1.7-2.7-2.9c-0.7-1.2-1.1-2.5-1.1-3.8c0-2.4,1.7-3.4,3.8-2.2
	c1.1,0.7,2.1,1.7,2.7,2.9C825.1,307.5,825.5,308.8,825.6,310.1z"/>
<path class="st3" d="M837.8,321.8c-0.7,0-1.4-0.2-2-0.6c-1.2-0.8-2.2-1.8-3-3.1s-1.1-2.7-1.2-4.1c-0.1-0.6,0-1.2,0.2-1.7
	c0.3-0.5,0.7-1,1.2-1.3s1.1-0.4,1.7-0.4c0.6,0.1,1.2,0.3,1.6,0.7c1.2,0.8,2.2,1.8,2.9,3.1c0.7,1.3,1.1,2.7,1.2,4.1
	c0.1,0.6,0,1.2-0.3,1.7s-0.6,1-1.1,1.3C838.7,321.7,838.2,321.8,837.8,321.8z M834.3,311.9c-0.2,0-0.5,0.1-0.7,0.2
	c-0.3,0.2-0.5,0.5-0.7,0.9c-0.1,0.3-0.2,0.7-0.2,1.1c0.1,1.2,0.4,2.4,1.1,3.5c0.6,1.1,1.5,2,2.5,2.6c0.3,0.3,0.8,0.5,1.2,0.5
	c0.5,0,0.9-0.2,1.2-0.5c0.2-0.2,0.4-0.5,0.4-0.8c0.1-0.3,0.1-0.6,0-0.9c-0.1-1.2-0.4-2.4-1.1-3.5c-0.6-1.1-1.5-2-2.5-2.6
	C835.3,312.1,834.8,311.9,834.3,311.9z"/>
<path class="st2" d="M936.2,329.5H935v12.4h1.2V329.5z"/>
<path class="st2" d="M943.3,325.4h-1.2v12.4h1.2V325.4z"/>
<path class="st3" d="M1000.1,302.3l-42.6,24.6v-6.3l42.6-24.6V302.3z"/>
<path class="st2" d="M809.1,338c-0.7,0-1.4-0.2-2-0.6c-1.2-0.8-2.2-1.8-3-3.1c-0.7-1.3-1.1-2.7-1.2-4.1c-0.1-0.8,0.1-1.6,0.5-2.2
	c0.5-0.6,1.1-1.1,1.9-1.2c0.4-0.1,0.8,0,1.2,0.1s0.8,0.3,1.1,0.6c1.2,0.8,2.2,1.8,3,3.1c0.7,1.3,1.1,2.7,1.2,4.1
	c0.1,0.6-0.1,1.2-0.3,1.7c-0.3,0.5-0.6,1-1.1,1.3C810,337.9,809.6,338,809.1,338z M805.7,328.1c-0.2,0-0.5,0.1-0.7,0.2
	c-0.3,0.2-0.5,0.5-0.7,0.9s-0.2,0.7-0.2,1.1c0.1,1.2,0.4,2.4,1.1,3.5c0.6,1.1,1.5,2,2.5,2.6c0.3,0.2,0.6,0.4,1,0.4s0.7,0,1.1-0.1
	c0.3-0.2,0.5-0.5,0.7-0.9c0.1-0.3,0.2-0.7,0.2-1.1c-0.1-1.2-0.4-2.4-1.1-3.5c-0.6-1.1-1.5-2-2.5-2.6
	C806.7,328.2,806.2,328.1,805.7,328.1z"/>
<path class="st3" d="M823.4,346.2c-0.7,0-1.4-0.2-2-0.6c-1.2-0.8-2.2-1.8-2.9-3.1c-0.7-1.3-1.1-2.7-1.2-4.1c-0.1-0.6,0-1.2,0.2-1.7
	c0.3-0.5,0.7-1,1.2-1.3s1.1-0.4,1.7-0.4c0.6,0,1.2,0.3,1.6,0.6c1.2,0.8,2.2,1.8,3,3.1s1.1,2.7,1.2,4.1c0.1,0.6-0.1,1.2-0.3,1.7
	c-0.3,0.5-0.6,1-1.1,1.3C824.4,346.1,823.9,346.2,823.4,346.2z M820,336.3c-0.2,0-0.5,0.1-0.7,0.2c-0.3,0.2-0.5,0.5-0.7,0.9
	c-0.1,0.3-0.2,0.7-0.2,1.1c0.1,1.2,0.4,2.4,1.1,3.5c0.6,1.1,1.5,2,2.5,2.6c0.3,0.2,0.7,0.4,1,0.4c0.4,0,0.7,0,1.1-0.1
	c0.3-0.2,0.5-0.5,0.7-0.9c0.1-0.3,0.2-0.7,0.2-1.1c-0.1-1.2-0.4-2.4-1.1-3.5c-0.6-1.1-1.5-2-2.5-2.6
	C821,336.5,820.5,336.3,820,336.3z"/>
<path class="st3" d="M839.9,351.2c0,2.4-1.7,3.5-3.8,2.2c-1.1-0.7-2.1-1.7-2.7-2.9c-0.7-1.2-1.1-2.5-1.1-3.8c0-2.4,1.7-3.5,3.9-2.2
	c1.1,0.7,2,1.7,2.7,2.9C839.4,348.5,839.8,349.8,839.9,351.2z"/>
<path class="st2" d="M936.2,362.2H935v12.4h1.2V362.2z"/>
<path class="st2" d="M943.3,358.1h-1.2v12.4h1.2V358.1z"/>
<path class="st2" d="M957.5,360.2c-0.1,0-0.2,0-0.3-0.1s-0.2-0.1-0.2-0.2c-0.1-0.1-0.1-0.2-0.1-0.3v-6.3c0-0.1,0-0.2,0.1-0.3
	c0.1-0.1,0.1-0.2,0.2-0.2l42.6-24.6c0.1-0.1,0.2-0.1,0.3-0.1s0.2,0,0.3,0.1c0.1,0,0.2,0.1,0.2,0.2s0.1,0.2,0.1,0.3v6.3
	c0,0.1,0,0.2-0.1,0.3c-0.1,0.1-0.1,0.2-0.2,0.2l-42.6,24.7C957.7,360.2,957.6,360.2,957.5,360.2z M958.1,353.6v4.9l41.4-23.9v-4.9
	L958.1,353.6z"/>
<path class="st3" d="M811.3,367.3c0,2.4-1.7,3.5-3.9,2.2c-1.1-0.7-2.1-1.7-2.7-2.9c-0.7-1.2-1.1-2.5-1.1-3.8c0-2.4,1.7-3.5,3.9-2.2
	c1.1,0.7,2.1,1.7,2.7,2.9C810.8,364.7,811.2,366,811.3,367.3z"/>
<path class="st3" d="M823.4,379c-0.7,0-1.4-0.2-2-0.6c-1.2-0.8-2.2-1.8-2.9-3.1c-0.7-1.3-1.1-2.7-1.2-4.1c-0.1-0.6,0-1.2,0.2-1.7
	c0.3-0.5,0.7-1,1.2-1.3s1.1-0.4,1.7-0.4c0.6,0,1.2,0.3,1.6,0.7c1.2,0.8,2.2,1.8,3,3.1c0.7,1.3,1.1,2.7,1.2,4.1
	c0.1,0.6-0.1,1.2-0.3,1.7c-0.3,0.5-0.6,1-1.1,1.3C824.4,378.8,823.9,379,823.4,379z M820,369c-0.2,0-0.5,0.1-0.7,0.2
	c-0.3,0.2-0.5,0.5-0.7,0.9c-0.1,0.3-0.2,0.7-0.1,1.1c0.1,1.2,0.4,2.4,1.1,3.5c0.6,1.1,1.5,2,2.5,2.6c0.3,0.2,0.6,0.4,1,0.4
	s0.7,0,1.1-0.1c0.3-0.2,0.5-0.5,0.7-0.9c0.1-0.3,0.2-0.7,0.1-1.1c-0.1-1.2-0.4-2.4-1.1-3.5c-0.6-1.1-1.5-2-2.5-2.6
	C821,369.2,820.5,369,820,369z"/>
<path class="st2" d="M837.8,387.2c-0.7,0-1.4-0.2-2-0.6c-1.2-0.8-2.2-1.8-3-3.1c-0.7-1.3-1.1-2.7-1.2-4.1c-0.1-0.6,0-1.2,0.2-1.7
	c0.3-0.5,0.7-1,1.2-1.3s1.1-0.4,1.7-0.4c0.6,0,1.2,0.3,1.6,0.7c1.2,0.8,2.2,1.8,2.9,3.1c0.7,1.3,1.1,2.7,1.2,4.1
	c0.1,0.6,0,1.2-0.3,1.7s-0.6,1-1.1,1.3C838.7,387.1,838.2,387.2,837.8,387.2z M834.3,377.3c-0.2,0-0.5,0.1-0.7,0.2
	c-0.3,0.2-0.5,0.5-0.7,0.9s-0.2,0.7-0.2,1.1c0.1,1.2,0.4,2.4,1.1,3.5c0.6,1.1,1.5,2,2.5,2.6c0.3,0.3,0.8,0.5,1.2,0.5
	c0.5,0,0.9-0.2,1.2-0.5c0.2-0.2,0.4-0.5,0.4-0.8c0.1-0.3,0.1-0.6,0-0.9c-0.1-1.2-0.4-2.4-1.1-3.5c-0.6-1.1-1.5-2-2.5-2.6
	C835.3,377.5,834.8,377.3,834.3,377.3z"/>
<path class="st2" d="M936.2,394.9H935v12.4h1.2V394.9z"/>
<path class="st2" d="M943.3,390.8h-1.2v12.4h1.2V390.8z"/>
<path class="st3" d="M1000.1,367.7l-42.6,24.6V386l42.6-24.6V367.7z"/>
<path class="st2" d="M794.9,210.9l-0.6-1l109.4-63.2c0.1-0.1,0.2-0.1,0.3-0.1s0.2,0,0.3,0.1l108.8,62.8l-0.6,1.1L904,148
	L794.9,210.9z"/>
<path class="st0" d="M532.1,248.8v-20.3l6.1,0.7l16.3,3.4l12.2,2l6.1,0.7l18.3-1.4l12.9-4.1l13.6-6.1l8.8-4.1v3.4l2,13.5l7.5,37.2
	l4.1,27.1l0.7,9.5v11.5l0.7,10.1l-0.7,7.4v14.9l0.7,15.6l0.7,10.1v4.7l0.7,7.4v5.4l-7.5,2.7l-7.5,3.4l-6.1,3.4h-8.8l-6.1-2
	l-3.4-14.2l-2-14.9l-1.4-16.9l-0.7-8.8l1.4-25.3v-11.9v-4.1l-2.7-8.1l-2-9.5l-3.4-12.2l-4.1-12.2l-0.7-6.8l-4.7,15.6l-2.7,10.1
	l-0.7,10.8l-3.4,12.2l-4.1,28.4l-2.7,15.6l-3.4,6.8v3.4l-0.7,8.8l-2,8.8l-0.7,12.9l-1.4,12.9l-0.7,14.9v4.1v11.5v4.7l-1.4,0.7h-4.7
	l-10.2,2l-6.1,1.4l-4.7-2l-8.1-4.1l-1.4-2v-6.8l-1.4-24.4v-27.7l2.7-14.9l3.4-12.2l3.4-9.5v-7.4V305v-18.3L532.1,248.8L532.1,248.8z
	"/>
<linearGradient id="SVGID_1_" gradientUnits="userSpaceOnUse" x1="537.2522" y1="541.7285" x2="642.6112" y2="541.7285" gradientTransform="matrix(1 0 0 -1 0 873)">
	<stop  offset="0" style="stop-color:#D9D9D9"/>
	<stop  offset="0.9558" style="stop-color:#D9D9D9;stop-opacity:0"/>
</linearGradient>
<path class="st4" d="M641.5,374.5c0.2-3.2-0.7-19.8-0.6-23.1c0.6-13.2-0.7-28.5-0.1-36.6c0.3-11.6-2.8-32.3-6.5-49.9
	c-1.4-9.4-8-46.5-8-46.5S615,223.9,611,226c-5.8,3.1-8.1,4.2-14.2,6.1c-0.4,0.1-8.3,1.6-8.7,1.8c-2.4,0-7.5,2-16.4,0.8
	c-9-1.2-14.8,4.3-19.1,25.4l-4.6,76.4c-0.5,1.5-0.9,3-1.2,4.6c-1.8,8.3-3.1,16.7-3.6,25.2c-2.7,11.9-4.6,21.3-5.3,32.3
	c-0.4,5.9-0.6,13.2-0.5,19.1c0.2,10.7,4.7,27.4,8.4,26.4c4.8-1.3,10.3-1.6,13.8-1.6c2.8,0-0.4-1.7,1.5-13.3c0.5-2.8-1-4.7-0.7-7.8
	c0.6-6.1,1.4-14.8,1.6-20.3c1.1-15.4,1.9-22.7,4.6-38.4c-0.8-3.9,2.5-7.5,3.7-11.9c1.5-5.5,4.8-36.5,4.8-36.7
	c5.4-24.6,9.9-46.1,9.9-46.4c0.3-1.1,1.2-1,0.7-3.1c0.1-0.1,0.4-2.7,0.4-2.8c0.5-0.5,3.9-6.5,4.7-7.2c0,1.4,5.1,3.7,7.6,7.6
	c8.1,12.4,7.9,27.8,10.2,35.8c1.1,4.3,6.7,10.3,7,18.5c1.1,32.5,2.4,45.8,2.1,51.5c-1.9,20.3-13.6,12.5-16.9-0.1
	c-2-7.6,0.7,4.8,1.2,12.6c0.4,5.5,1.3,8.4,2.4,14.7c0,0.7,1.5,6.1,1.5,6.9c0.2,4.5,1.5,4.1,5.1,5.2c6.6,1.9,12.4,0.4,15.7-2.5
	c6.7-3.3,15.9-7.8,15.9-7.8S641.8,385.7,641.5,374.5z"/>
<path class="st3" d="M656.2,155.4c-1-2.8-2.3-5.4-3.9-7.9c-0.5-1.9-1.2-3.8-2.6-4.9c-1.7-6.3-5.9-11.2-9.7-16.4
	c-2.7-3.6-5.4-7.7-8.5-11.2c-0.9-1.3-1.6-2.7-2.3-4.1c-0.6-2.1-1.2-4.1-1.9-6.2c-0.4-2.9-0.6-5.9-1.5-8.6c-0.1-0.2-0.1-0.3-0.3-0.5
	c-0.1-0.1-0.3-0.2-0.4-0.3c-1.5-6.2-2.6-13.3-5.6-19.1c0.2-2.2-3.1-5.3-4.1-6.5c-0.8-1-2.1-3.1-3.4-3.4c-1.1-0.2-2.1,0.7-2.5,1.6
	c-0.2,0.6-0.3,1.3-0.3,2c-0.2,1.4-1,2.2-1.9,3.3c-1.5,1.7-2.9,3.5-4.4,5.2l-0.1,0.1c-0.5,0.2-1,0.5-1.4,0.9
	c-0.3,0.1-0.5,0.2-0.7,0.5c-0.2,0.2-0.2,0.5-0.2,0.8c-0.2,0.4-0.3,0.8-0.4,1.2c-0.6,3.1-1.7,5.6-4.1,7.8c-0.2,0.2-0.3,0.4-0.3,0.7
	c-0.2,0.1-0.4,0.3-0.5,0.6c-0.1,0.2-0.1,0.5-0.1,0.8c0.5,3.8,0.3,7.7-0.6,11.4c-0.4,0.4-0.7,0.3-1.2,0.5h-0.1l-3.4-2.8
	c-1.3-1.1-1.3-1-2.1-0.1c-0.7,0.3-1.8,1.2-2.5,1.6l-1.5,1c-0.3-0.1-0.9,0.4-1.2,0.5c-2.7,0.5-4.5,0.6-7.2,0.2
	c-2.9-0.2-2.8-1.1-4.7-2.2c-0.1-0.2-0.9-0.9-0.9-1.1c-0.1-1-1.5-0.9-2.3,0l-2.5,2.9c-0.8,1.2-1.8,2.2-2,4.1
	c-0.8,0.1-0.6-0.7-0.8-0.4c-2.4-2.4-3.7-4.3-4.5-7.6c-1.8-7.5-6.4-14.5-5.1-22.5c0-0.2,0-0.5-0.1-0.7c0.5-3.5,1.2-6.8,2-8.5
	c1.2-2.7-8.9,7.6-16.1,14.9c-0.6,0.2-1.5,1.7-2.4,3.1l-11.8,12.3c-1.4,0.8-2.5,1.9-3.2,3.4l-0.1,0.1c-5.1,7-8.4,15.2-9.8,23.7
	c-0.3,0.3-0.5,0.6-0.7,0.9c-0.2,0.4-0.3,0.7-0.3,1.1c-0.3,7.9-0.7,15.8-1,23.7c0,0.2,0,0.5,0,0.7c0,0.1,0,0.2,0,0.4
	c-0.2,6.6,0.3,13.1,1.5,19.6c0.1,0.4,0.2,0.7,0.4,1c0,0.1,0,0.2,0.1,0.4c0.8,3.6,1.5,7.2,2.3,10.8c0.1,0.4,0.2,0.7,0.4,1
	c0.6,4.2,1.4,8.3,4.1,11.7c2.4,2.9,5.7,4.6,9.2,5.7v0.9c-0.1,0.3-0.1,0.5-0.1,0.8l0.1,1.4c0,0.2-0.1,0.3-0.1,0.5
	c-0.5,5.6-1.7,11.6-0.8,17.2c0.4,2.5,1.8,4.9,4.3,5.8c2.3,0.9,5.1,0.7,7.6,0.7l4.5,1c0.2,0.3,0.5,0.5,0.8,0.6s0.6,0.2,1,0.2l2.4,0.2
	l0.3,0.1c5.8,1.2,11.6,2.1,17.5,2.9c0.2,0.1,0.3,0.1,0.5,0.1c7.6,1.3,15.4,1.4,23,0.2c0.1,0,0.2,0,0.3-0.1c4.9-0.3,9.7-1.6,14.1-3.7
	c0.7-0.1,1.4-0.4,2-0.8l0.1-0.1l12.9-6.1l0.1-0.1h0.3c0.4,0,0.8-0.2,1.2-0.4s0.6-0.5,0.8-0.9l0.2-0.1l3-1.5c0.2-0.1,0.4-0.3,0.5-0.5
	c-1.5,0.3-1.8,0.3-4,0.3c-0.1,0-1,0-3.9-0.3c-2-0.2-5.3,0.7-7.1-0.6c-0.5-0.3-1-0.5-1.6-0.6c-2-0.6-3.5-1.8-5.6-1.7
	c-4.7,0.2-7.5-2.1-11.3-2.9c-1.8-0.4-3.1-1.3-5.1-1.8c-1.3-0.3-3.6,0.8-4.5-0.5l-0.2-0.2c-0.4-0.5-0.7-1.2-0.8-1.9
	c-1.2-4.9,0-7.2,0.7-12.6c0.2-0.2,0.3-0.5,0.4-0.8c0.3-0.5,0.3-0.9,0.6-1.3c1-0.3,1.9-0.7,3-1c0.4-0.1,0.8-0.1,1.2-0.2
	c0.2,0.1,0.4,0.2,0.6,0.2c0.8,0.1,1.5,0.5,2.4,0.5c0.1,0,0.4,0,0.4,0c0.4,0.1,0.9,0,1.3-0.1c5-0.5,9.3-2.9,14.4-2.4h0.1l0.7,0.1
	c1.2,0.3,2.4,0.6,3.6,0.7c0.8,0.4,1.6,0.5,2.5,0.4l0,0c0.9,0.2,1.8,0.3,2.7,0.3c0.3,0,0.6-0.1,0.8-0.4c0.2-0.2,0.4-0.5,0.4-0.8
	l0.1-0.1c1.8-2.7,3.5-5.5,5-8.3c0.1-0.2,0.2-0.4,0.2-0.6s-0.1-0.4-0.2-0.6l0,0c-0.4-1.6-0.9-3.2-1.3-4.8c0.1-0.3,0.1-0.6,0-0.8
	c-0.3-0.8-0.5-1.6-0.8-2.4c-0.6-2.7-1-5.4-1.2-8.2c-0.2-1.7-0.4-3.5-0.6-5.2c0.1-0.1,0.2-0.3,0.2-0.5s0-0.4,0-0.5l-0.9-5
	c0-0.2-0.1-0.4-0.2-0.6c0.4-4.2,0.8-8.4,1.2-12.6c2,3.7,4.8,6.5,7,9.9c1.3,2.1,2.5,4.3,3.9,6.3c0.4,1,1.1,1.9,2,2.5
	c0,0.2-0.2,0.5,0,0.7c3.2,3.5,1.5,5.5,7.2,8.6c0.4,0.2,0.9,0.4,1.4,0.5l1.7,1.9c0.2,0.2,0.5,0.3,0.7,0.4s0.6,0,0.8-0.2l0.6-0.4
	c0.1,0,0.2-0.1,0.3-0.1c0.1-0.1,0.2-0.1,0.3-0.2l0.2-0.1l0.2-0.2c0.1-0.1,0.2-0.2,0.3-0.4c0.4-0.6,0.7-1.3,1-2.1l1.3-3.7l0.4-0.5
	c1.4-1.8,2.5-3.2,3.2-5c0.3-0.2,0.6-0.4,1-0.6c0.2,0.1,0.3,0.1,0.5,0.1l4.4,0.2l0.1,0.1c0.9,0.4,1.3-0.2,1.4-1.2
	c0-0.5,0.5-0.8,0.5-1.3C657.1,157.5,656.7,156.4,656.2,155.4z"/>
<path class="st5" d="M655.1,152.6c-1-1.6-2.2-3.9-3.1-5.5c-2.6-5.7-5.4-11.2-8.6-16.6c-0.7-1.2-3.9-5.5-4.8-6.5
	c-7.1-7.9-9.3-12.9-12.6-23.1c-0.1-5.1-1.4-8.2-2.9-13.2c-0.4-2.1-1.1-4.2-2.1-6.1c-0.3-0.6-0.6-2.9-1.1-3.4
	c0.2-2.8-7.8-12.4-7.8-12.4s-3,0.2-3.1,1.8c-0.5,0-1.2,3.5-1.5,3.9c-3.4,4.6-5.2,6.7-7.7,8.3c-0.7,0.5,0.5,1.9-0.5,4
	c-1.2,2.5-4.8,5.8-4.6,6.8c1.4,2.9-0.8,10.4-1.1,12.6c-1.4,0.1-5.3-3.5-5.3-3.5s-5.3,3.9-1.2,9.7c0.8,1.3,1.4,2.7,2,4.1
	c-0.2-0.5,0.4,1.1,0.5,1.2c0.3,0.8,0.6,1.6,0.9,2.4c1.1,3.2,2,6.4,2.8,9.6c1.6,6.3,2.6,12.7,3.6,19.1c2.1,14.2,6.5,47,6.5,47
	l11.3,1.7l5.4-10.2c-1.6-5.6-2.6-11.4-3.2-17.2c-1-9.6-0.9-21.7-1-30.3c0.9-0.7,2.8-4.4,3.3-5.3l0,0c0.1-0.2,0.1-0.2,1.8,0.7
	c5,2.8,9.5,6.4,13.5,10.5c2.6,4.4,0,10.3,4.1,14.7c3.4,3.7,7.6,3.3,6.8,8.7c2.4-3.8,3.3-4.8,6-6.1c1.9-0.9,5.2,2.1,5-0.4
	c0.1-0.4,0.1-0.8,0-1.2C656.2,157.3,656.4,154.7,655.1,152.6z"/>
<path class="st6" d="M572,480c-0.1-0.2-0.1-0.6-0.2-0.7c-0.5-3-1.2-4.3-2.4-6.7c0-0.1-6-12.7-9.7-16.2c-0.4-1.2-1.3-2.2-1.9-3.3
	c0-0.6-0.1-1.2-0.2-1.7c-0.2-2.4-2.3-7.8-2.2-9.2c0-0.9-3.7-0.3-6,0.4c-2.3,0.7-3.6,1.2-6.2,2.2l-3.5,0.6c-1-0.4-2-0.9-3-1.5
	c-2.3-1.3-4.1-1.8-6.8-3.4c-4.1-2.1-4-1.9-4.5,0.2c-0.8,4-0.3,13.1-0.3,13.1s4.5,6.4,5.3,10.1c-0.2,0.3-0.2,0.7-0.2,1
	c1.1,10.5,8.7,19.8,19.3,21.9c5.2,1,10.6,0.4,15.5-1.8c2-0.4,4-1.1,5.8-2.2C571.8,482.3,572.5,481,572,480z"/>
<path class="st6" d="M686,426.8c0-0.1,0-0.2,0-0.3c0.1-1.1,0-2.1-0.4-3.1c-0.3-1-0.9-1.9-1.6-2.7h-0.1l-0.1-0.1c0.1-0.3,0-0.5,0-0.8
	c-0.1-0.2-0.3-0.4-0.5-0.6c-1.5-1-3.1-1.9-4.7-2.8c-0.1-0.1-0.3-0.2-0.4-0.3c-1.4-0.8-2.8-1.4-4.4-1.9c-5.5-2.4-11-4.8-16.5-7.2
	l-2.6-1.6l-0.1-0.1l-8.9-6.5c-0.1-0.1-0.3-0.2-0.5-0.2c-0.3-0.2-0.6-0.4-0.9-0.5c-0.5-0.5-1.2-0.9-1.9-1.1c-1.9-0.4-4.4,1.4-6,2.2
	c-0.2,0.1-0.3,0.2-0.5,0.4c-0.8,0.2-1.6,0.5-2.4,0.8c-4,1.7-7.9,3.6-11.8,5.5c-0.4,0.2-0.7,0.4-1,0.7c-2.8,0.4-5.3,0.2-8.2,0.2
	c-0.1,0-5-1.2-5.1-1.2c-0.8,2.2-1.5,8.3,0.5,11c0.9,1.3,2.4,1.5,3.7,2.2c3.9,2.1,9.3,3.9,14,3.1c3.5,1.3,6.4,2.6,9.9,3.7
	c5.9,3.1,12.7,6.6,19.5,7.9c5.7,1.1,11.3,0.3,17-0.3c0.3,0,0.5-0.1,0.8-0.1h0.1c4.4-0.3,8.8-0.8,12-3.9c0.3,0,0.6,0,0.8-0.2
	s0.4-0.4,0.4-0.7c0-0.2,0.1-0.5,0.1-0.7C686.2,427.3,686.1,427,686,426.8z"/>
<path class="st7" d="M569.7,473.4c-1.5-4.1-3.5-8-5.8-11.7c-1.5-2.4-3.4-4.2-5-6.6c-0.7-1.9-1.1-4.3-1.8-6.1
	c-0.7-2.2-1.3-4.5-1.6-6.8c-1.4-0.2-2.9-0.2-4.4,0c-2.6,0.4-4.6,0.9-5.9,1.7c-5.4,3.3-11.3-1.7-11.2-0.2s9.6,4.7,10.8,8
	c2.9,8.1,11.8,13.9,13.3,16.6c8,14.2-0.9,19-0.9,19c1.9-0.3,3.7-0.7,5.5-1.2c3.2-1.2,6.4-2.6,9.4-4.3
	C572,480,571.1,477.5,569.7,473.4z"/>
<path class="st7" d="M682,417.9c-3.9-2.4-8.1-4.3-12.4-5.9l-0.8-0.3c-12.6-5.7-14.1-6.4-21.6-12.3c-0.1-0.4-1.6-0.7-1.8-1.1
	c-1.1-1.9-3.3-2.2-5.2-1.3l-11.2,5.1c-2.1,1.4-4.5,2.5-7.9,4.6c-0.6,0.4,3.7-0.2,10.4,1.2c7.9,1.8,9,5.6,16.7,8
	c0.8,0.3,6.7,1.1,8.5,1.5l14.2,4c4.3,1.2,5.9,3.6,7.5,6.3c2,3.2-1.1,4.9,0.9,4.6c1.8-0.3,4-1.2,4.8-1.9c0.1-0.1,2.1-1.6,2.1-1.7
	c0.2-0.5,0.2-2.1,0.1-2.7C686.1,422,684.4,419.9,682,417.9z"/>
<path class="st8" d="M612.7,194.5c-1.1-0.2-3.5-0.8-3.5-0.2c0,3.3-3.2,3.2-4.7,4.5c-1.6,1.4-0.1,2.2,0.2,2.4c0.2,0.1-0.1-0.8,0.4-1
	c1.2-0.4,1.4-0.4,2.8-0.8c0.7-0.1,1.4-0.3,2.1-0.6c0.2-0.1,1.1,0,1.3-0.1c0.2,0,0.3,0,0.5-0.1c0.1-0.1,0.3-0.2,0.4-0.3
	c0.6-0.9,1.2-1.9,1.7-2.9C614.4,194.6,613.8,194.5,612.7,194.5z"/>
<path class="st5" d="M585.2,193.1c-0.1-0.6-0.4-1.2-0.7-1.7c-0.5-0.6-1.1-1.3-1.7-1.8c-1.2-1.1-2.2-1.5-3.7-2.2
	c-9.9-4.2-17.3-8.8-25.5-13.5c-2.1-1.1-6.5-3.5-8.8-4.1c0.3-7.7,1.1-13.4,2.1-21.5c0.1-7.7-1.2-17.6-2.4-26.9
	c-0.2-2-0.9-0.9-1.7,1.2c-5.8,14.4-1.6,31.5-7.8,45.9c-0.5,1.1,2.9,1.5,3.6,2c-3.4,1.4-2.9,1.9-2.9,2c-0.2,0.3-0.2,0.7-0.2,1.1
	c0,0.4,0.1,0.7,0.3,1s0.5,0.6,0.8,0.8s0.7,0.3,1.1,0.3h0.1c8.4,2.4,17,4.7,25,8.4c3.7,1.8,7.4,3.9,10.9,6.2c1.9,1.2,3.1,4,5.3,4
	c3.7-0.1,0.8,3.7,0.8,3.7s3-3.2,4.1-3.1C585.4,194.9,585.3,195.3,585.2,193.1z"/>
<path class="st6" d="M671.3,179.7c1.2-2.1,0.9-1.7,0.6-4c-0.3-0.9-0.7-1.8-1.2-2.6c-0.6-2.1-0.5-2.1-1.5,0c-0.4,0.9-1.2,2.2-1.6,3.1
	c-0.6,1.1-1.5,2-2.4,2.7c4.4-0.3,0.3,5.5,0.3,5.5s3.1,3.7-1.9,5.5c2.4,0.2,2.5,1.3,0.6,2.4c-0.6,0.8,1.8-0.4,1.9-0.6
	c0.9-0.8,1.7-1.7,2.5-2.7c0.5-0.7,1.7-1.7,1.4-2.3c0.8-1.3,1.4-2.7,1.9-4.2c0.1-0.4,0.1-0.9,0-1.4
	C671.8,180.5,671.6,180,671.3,179.7z"/>
<path class="st6" d="M662.2,162.9c-2.4-0.7-9-4-12.5-2.2c-0.9,0.4-3,2.7-3.4,4c-0.1,0.4,0.8-1.3,2.9-1.2c5.8,0.2,3.4,3.9,6.3,2.9
	c1.2-0.4,3.1-0.8,3.6-1.6C660.7,165.1,662.6,163,662.2,162.9z"/>
<linearGradient id="SVGID_00000084528855015831264900000011375017582849876888_" gradientUnits="userSpaceOnUse" x1="579.9214" y1="792.3315" x2="609.1272" y2="792.3315" gradientTransform="matrix(1 0 0 -1 0 873)">
	<stop  offset="0" style="stop-color:#D9D9D9"/>
	<stop  offset="0.9558" style="stop-color:#D9D9D9;stop-opacity:0"/>
</linearGradient>
<path style="fill:url(#SVGID_00000084528855015831264900000011375017582849876888_);" d="M597.3,70.2c-1.7-0.2-7.2-2.6-7.2-2.6
	s-3.5,1.2-7.9-2.7c-3.8-3.5-1.1,4.6,2,7.3c5.3,4.4,5.4,4.7,3.5,10c-1.9,5.2-8.3,6.3-7.7,10.3s2.1,4.8,5.1,4.8
	c4.4,0,14.6-12.4,14.6-12.4s0.2-2.4,0.4-4.4s1.6-0.4,3-1.7c1.4-1.4,2.7-3,3.8-4.7c1.3-2.2,2.1-4.6,2.3-7.1
	C609.1,66.9,600.3,70.5,597.3,70.2z"/>
<path class="st10" d="M566.1,58.2c0.9-0.4,0,0.3,0.4,0.7c0,0-0.2-1.5-0.2-1.6c-0.1-0.4-0.3-0.8-0.4-1.2c-0.3-1.6-2.3-4.7-4.6-3.5
	c-1.1,0.5-0.7,3.3-0.7,4.3c0,2.4,0.3,11.4,2.5,12.4"/>
<path class="st10" d="M565.2,72.2c0,7.1,1.3,12.4,8.3,19.1c1.2,1.1,4.1,3.1,5.4,4c1.5,1.1,3.5,2.3,5.3,2.3"/>
<path class="st0" d="M645.6,259.2c-0.1,0-0.3,0-0.4-0.1l-59.8-34.5c-0.1-0.1-0.2-0.2-0.3-0.3s-0.1-0.2-0.1-0.4v-77.5
	c0-0.1,0-0.3,0.1-0.4c0.1-0.1,0.2-0.2,0.3-0.3s0.2-0.1,0.4-0.1s0.3,0,0.4,0.1l59.8,34.5c0.1,0.1,0.2,0.2,0.3,0.3s0.1,0.2,0.1,0.4
	v77.5c0,0.1,0,0.3-0.1,0.4s-0.2,0.2-0.3,0.3C645.8,259.1,645.7,259.2,645.6,259.2z"/>
<path class="st2" d="M645.6,259.2c-0.1,0-0.3,0-0.4-0.1l-59.8-34.5c-0.1-0.1-0.2-0.2-0.3-0.3s-0.1-0.2-0.1-0.4v-77.5
	c0-0.1,0-0.3,0.1-0.4c0.1-0.1,0.2-0.2,0.3-0.3s0.2-0.1,0.4-0.1s0.3,0,0.4,0.1l59.8,34.5c0.1,0.1,0.2,0.2,0.3,0.3s0.1,0.2,0.1,0.4
	v77.5c0,0.1,0,0.3-0.1,0.4s-0.2,0.2-0.3,0.3C645.8,259.1,645.7,259.2,645.6,259.2z M586.5,223.5l58.3,33.6v-75.8l-58.3-33.6V223.5z"
	/>
<path class="st10" d="M612.9,65.1c-0.9,0.7-3.6,1.6-3.7,2.7c-0.1,1.4,0,2.3-1.2,3.8c-2.7,3.3-4.1,6.9-7.1,7.6"/>
<path class="st10" d="M590.5,68.4L590.5,68.4"/>
<path class="st10" d="M538.3,172.1c2.2-1.1,5.2-1.2,7.6-1.2"/>
<path class="st10" d="M540.4,175c0.9-1.9,4.2-2.9,5.9-3.8"/>
<path class="st10" d="M518.9,198.2c0.7,1.9,9.3,4.6,11.5,5.4c1.9,0.7,3.6,2.3,5.5,3c7.9,2.9,16.8,4.5,25,6.5
	c3.7,0.9,12.3,0.6,15.2,2.4"/>
<path class="st0" d="M636.3,206.9c-5-1.9-5.9-1.2-8.4-1.2c-3.1,0-4.7,0-8.1,0c-0.3,0.1-2.4,0-2.8,0c-2.2-0.3-2.4-0.2-5-0.6
	c-2.4-0.4-4.8-1.4-6.8-2.8v-0.6c-0.1-0.6,4,1.4,8.1,1.9c1.8,0.2,7.3-0.5,9.3-1.5c1.3-0.6,0.6-3.5,0.6-3.5s-7.9,0.1-8.7,0
	c-1.1-0.1-9.4-2.4-10.6-2.5c-1.8-0.5-5.5-1.9-6.2-1.9c-3.4,0.4-2.9,0.3-8.7,1c-1.3-0.5-3.1-0.4-4.7-0.1c-4.4,0.7-6.1,8.4-5.3,14.5
	c0.1,1,0.7,3.4,1.6,3.5c3.2,0.3,7.3,1.9,10.5,2.7c0.2,0.1,2.2,0.4,2.4,0.5l2.7,0.6c0.3,0.2,0.7,0.4,1.1,0.6c0.4,0.1,0.7,0.2,1.1,0.3
	c0.3,0.3,0.6,0.4,1,0.5l2.5,0.4c0.1,0.1,0.2,0.1,0.3,0.1c1.9,0.8,2.9,0.8,5.1,1.4c0.5,0.2,2,1,2.5,0.9c2.2,0.3,2.9,0.3,4.4,0
	c1.2,0.3,7.8,0.2,10.3-0.6c1-0.3,5.2-1.7,6.2-2c0.1,0-0.1-1.1,0-1.1c0.7-0.1-1.6-0.4-0.9-0.6c1.4-0.5,6.6-1,7.1-2.2
	c0.5-1-0.5-0.8,0-1.6c1.2-0.3,2.8-1.2,2.8-1.2s0.4,0.2-0.9-1.9c-0.2-0.3-1.3-0.2-0.9-0.3C639.1,208.8,636.7,207.1,636.3,206.9z"/>
<path class="st10" d="M600.8,79.2c-1.2,0,0.2,2.3-1.4,5.6c-2.8,5.8-12.4,12.5-15,12.5"/>
<path class="st10" d="M566.2,54.1c2.5,1.2,3.2,3.9,2.6,6.7c-0.1,0.3-0.7,3.2-0.4,3.4s2.5-5,2.1-2.2c0,0.3,0,0.6,0,0.9"/>
<path class="st10" d="M560.9,65.1c-5,0-4.3-8.7-4.3-11.9c0-10.5,6.2-20.4,15.1-24.8"/>
<path class="st10" d="M569.9,27.7c1.1,1.1,3.3,0.7,4.8,0.7"/>
<path class="st10" d="M575.3,26.4c0.4,0-1.4-0.3-1.1,0c0.4,0.4,2.5,0.3,1.9,0.2C575.2,26.4,574.4,26.3,575.3,26.4z"/>
<path class="st10" d="M578.1,24.5c3.1,2.1,9.6,1.4,13.5,2.7c14.1,4.9,27.1,19.9,25.2,35"/>
<path class="st10" d="M572.6,61c0.2-0.4-0.5,0.8-0.8,1.1c-0.6,0.7,2.2-3,1.7-2.2C572.8,60.8,572.3,61.7,572.6,61z"/>
<path class="st10" d="M574.9,57.5c0,3.8,1.5,0.6,2.1-1.1c0.1-0.3,0.1-0.9,0.4-0.7c0.7,0.4,1.3,3.1,1.9,3.9"/>
<path class="st10" d="M579.2,59c-1.6,3.1,7.8,9.5,10.3,10.1"/>
<path class="st10" d="M589.6,68.9c0-0.3-0.2-1.9,0-2.1s0.2,0.5,0.4,0.7c0.2,0.3,0.4,0.6,0.7,0.8c0.3,0.2,0.6,0.4,1,0.5
	c2.3,0.6,4.2,1.3,6.7,1.3c3.5,0,14.4-3.1,18.1-7.9"/>
<path class="st10" d="M558.6,64.3c0,3.1-1.2,6.3-0.6,9.4c0.3,1.5,0.5,3.2,1,4.7c0.8,2.7,2.9,4.5,4.5,6.6c2.8,3.7,7,8.1,12,8.1"/>
<path class="st10" d="M557.6,64.6l-0.3,0.6"/>
<path class="st10" d="M557.9,64.9c-1.8,0.9-3.1,2.5-3.8,4.4"/>
<path class="st10" d="M554.4,68.8c-2.3,4.6-2.2,12.6-1.2,17.6c0.7,3.7,2.8,7.2,3.7,10.8c0.6,2.3,3.1,9.5,5.1,10.6"/>
<path class="st10" d="M562.5,108.1c0-2.8,5.1-7.6,7.2-9.2c0.6-0.5,1.8-0.3,2.2-0.9c0.9-1.2,1.7-3.9,3.2-4.7"/>
<path class="st10" d="M585.6,97.4c2.5,1.2,5.4,4.8,7.9,5.9c0.9,0.4,1.2-2.2,1.3-2.8c0.6-2.8,1.5-6.5,0.1-9.2"/>
<path class="st10" d="M555.1,66.8c-2.3,0.8-4.4,3.3-6,5l-7.8,7.8c-4.4,4.4-8.3,9.5-12.7,13.9c-2.8,2.8-6.4,5-8.5,8.5
	c-2.3,3.8-4.2,7.7-6.1,11.6"/>
<path class="st10" d="M514.5,112.9c-3.1,6.2-3.9,12.8-4.7,19.6c-0.4,3.3,0.2,6.8-0.1,10.1c-1.1,9.6,0.1,19.8,1.2,29.3
	c0.7,6.3,3.1,12.4,4.2,18.6c0.4,2,0.9,4.2,2.2,5.6c0.4,0.5,0.7,1,1.3,1.6c0.3,0.3,0.4,0.8,0.7,1"/>
<path class="st10" d="M612.5,65.9c2.3,3.6,6.1,6.1,7.3,10.6c1.3,4.7,3.1,9.3,4.4,14.1c1.6,6.3,2.9,12.6,4.9,18.9
	c1.1,3.4,3.6,6.5,5.5,9.5"/>
<path class="st10" d="M634.3,118.5c3.8,6,8.9,10.8,12.4,17c2.2,4,4.1,8,6,12.2c1.4,3,5.4,7.7,4,11.3"/>
<path class="st10" d="M615.1,97.7c1.1,10.4,1.4,20.9,1,31.4c-0.3,8,1.1,16.4,0,24.2c-0.3,2.1,0.5,4.9,0.8,7"/>
<path class="st10" d="M616.8,142.5c0.4,3.3,4.6,6.6,6.6,9.2c2.1,2.8,3.4,6,5.1,9c0.8,1.4,2.1,2.4,2.8,3.8c0.7,1.3,1.1,3.4,2.4,4.4
	c2.3,1.9,5.2,2.6,6.9,5.2"/>
<path class="st10" d="M569,100.3c2.8,5.5,16.7,4.8,19.3-0.5"/>
<path class="st10" d="M566.8,103c6.7,6.3,18.6,7,24-1.3"/>
<path class="st10" d="M545.3,121.8c0,5.5,0.8,10.9,1.6,16.4c1.5,10.6-1.6,21.3-1.6,31.6"/>
<path class="st10" d="M546.1,170.8c4.4,0.5,7.5,3.3,11.3,5.3c5.8,3,11.7,6.1,17.5,9.2c4.4,2.3,8.7,2.9,10.6,7.9"/>
<path class="st10" d="M656.5,159.5c-1.6-1-4.6-2.8-6.6-2.2c-3.8,1.1-8.8,12.4-9.2,16"/>
<path class="st10" d="M656.5,159.3c0.1,0.1,0.1,0.9,0.2,1"/>
<path class="st11" d="M585.5,194.7c-6.6,0-6.7,8.8-6.7,13.5c0,1.7,0.3,5.5,2.6,5.5"/>
<path class="st11" d="M585.3,194.7c1.6-4.1-6.5,0-7.3,0.8c-3.1,3.1-2.8,23.2,3.3,18.2"/>
<path class="st11" d="M578.6,214.3c-0.3,0.4-0.7,0.8-1.2,1s-1,0.3-1.6,0.3"/>
<path class="st11" d="M585.1,194.8c1.4,0.1,3.2,0.8,4.6,0.6c3.5-0.5,7.7-1.8,10.9-0.6c8,3,13,4.2,17.8,3.6c2.6-0.3,4.6-0.4,5.3,0.6
	c0.6,1-0.6,3.5-3.8,4.1c-1.4,0.3-2.8,0.5-4.2,0.6"/>
<path class="st11" d="M616.7,203.7c-7.1,0.5-9.8-1.6-10.8-1.9c-0.2-0.1-0.8-0.3-0.9-0.1c-0.1,0.2,0.4,0.8,1,1.2"/>
<path class="st11" d="M605.6,202.5c1.7,1.3,3.8,1.6,5.5,2.2c8.3,3,20.9-1.1,26.4,3"/>
<path class="st11" d="M581.2,213.8c2.4-0.3,5.9,0.5,8.2,1.3c2.2,0.8,3.8,1.8,6,2.5c3.3,1.1,6.7,1.2,9.6,1.9"/>
<path class="st11" d="M604.5,219.5c6.5,2.8,8.9,1.6,15.9,1.9c3.6,0.1,7-2,9-2.3c1.9-0.3,2.2-2-0.8-1.7"/>
<path class="st11" d="M530.5,229.1c1.8,0.9,4.5,0.2,6.4,0.6c4.7,0.9,9.4,2.3,14.3,3c5.8,0.7,11.6,2.2,17.4,3
	c12.8,1.6,22.4,0,31.7-3.2"/>
<path class="st11" d="M527,202.9c-0.1,0.7-0.1,1.4-0.1,2v6c0,5.9-3.1,14.8,3.7,18.2"/>
<path class="st11" d="M643.8,172.1c0-1,0.9-1.6,1.1-2.5c0.6-3,2.8-8.2,6.1-9.3c1.9-0.6,5.3,0.1,6.7,0.9"/>
<path class="st11" d="M657.5,161.2c1.5,0.8,3.7,1.2,5.2,2.1"/>
<path class="st11" d="M667.6,176.6c-1.6,3.2-7,5.3-9.9,7.1c-1,0.6-3.8,1.9-4.2,2.8"/>
<path class="st11" d="M670.3,172.2c1.7,1.2,2.5,3.6,2.1,5.8c-0.5,2.6-6.7,7-9.1,8c-2.4,1-5,2.6-7.5,3.2c-1.9,0.5-3.1-1.7-2.3-2.8"/>
<path class="st11" d="M671.6,179.8c0.9,1,0.5,2.5,0,3.8c-1.2,3.1-5.7,5.5-8.5,6.9c-2.6,1.3-12.7,4.5-8.9-1.5"/>
<path class="st11" d="M670.8,184.6c0.9,0.9-1.3,3.7-1.9,4.4c-1,1.1-2,2.1-3.1,3c-2.1,1.6-5.2,1.9-7.6,2.8c-1.6,0.6-4.5-0.2-3.1-2.4"
	/>
<path class="st11" d="M650.5,169.1c-0.4-0.2-1.1-0.2-1.4-0.5"/>
<path class="st11" d="M637.5,207.7c0.2,0.1,0.3,0.3,0.5,0.5c0.1,0.2,0.2,0.4,0.2,0.7c0,0.2,0,0.5-0.1,0.7s-0.2,0.4-0.3,0.6l-6.2,0.2
	c-3.7,0.1-8.4,1.9-12.2,1.5c-1.7-0.2-3.4-0.2-5.1-0.5c-1.4-0.2-2.7-0.4-4.1-0.7"/>
<path class="st11" d="M638.2,210c0.7,0.2,2.2,0.8,1.1,2.2c-0.9,1.2-4.6,0.5-8.8,1.2c-4,0.8-5.1,1.1-8.1,1.4
	c-4.3,0.4-8.5,0.2-12.7-0.6"/>
<path class="st11" d="M634.2,213.1c5.1,0.2,3,2.7-1.6,3.1c-1.9,0.2-2.6,1.6-11,1.9c-3.1,0.1-11.1-0.3-12.6-0.8"/>
<path class="st11" d="M532.4,229.5c-0.3,2.2,0.8,4.8,0.6,7c-0.4,5.5-0.2,11.3-0.4,16.8c-0.5,10.6,0,21.1-0.5,31.6
	c-0.4,8.1,2.5,17.2,1.6,25.2c-0.2,2.3,0.3,4.6,0.1,6.9c-0.6,6.9-0.6,13.9,0,20.8"/>
<path class="st11" d="M592.8,252.8c-1.2,3.2-4.8,5.6-5.7,8.8c-1.4,4.9-2.4,9.8-3.5,14.8c-0.8,3.6-3,7.1-3.4,10.9
	c-0.3,3.1,0,6.1-0.6,9.2c-1.1,6.1-3,11.9-4.1,18.1c-1.4,7.6-1.8,15.2-2.6,22.7c-0.5,4.8-0.9,9.4-2.3,14.1c-0.8,2.7-2.6,4.7-3.5,7.4"
	/>
<path class="st11" d="M533.6,335.3c0,4.1-1,8.2-2.7,11.9c-1.5,3-1.4,7-2.2,10.2c-1.1,4.5-3.5,8.9-4.1,13.7
	c-1.5,10.3-0.5,20.6-0.5,30.9c0,7.7,0.7,15.3,0.7,23.1c0,2.5,1.1,5.3,0.5,7.8c-0.2,1.3-0.4,2.6-0.5,3.9v-1.5"/>
<path class="st11" d="M567.2,358.2c-0.9,1.8-0.4,4.1-0.7,6c-0.6,3.8-0.8,8.1-1.7,11.9c-1.4,5.8-1.1,12-1.7,17.9
	c-0.9,8.8-1.2,17.7-2.1,26.5c-0.1,1.5,0.1,3,0.4,4.4c0.6,3.2,0,7.9-0.4,11c-0.2,1.2,0.5,3.8,0,4.9"/>
<path class="st11" d="M524.6,437.3c0.5-1.1,1.9,1.4,2.9,1.7c3.6,1,6.5,4.1,10.2,5.3c4.5,1.5,7.4-1.2,11.5-2c2.3-0.5,4.6-0.8,6.9-0.9
	c1.4,0,5,0.3,5-1.1"/>
<path class="st11" d="M587.7,261.2c0,4.5,2.4,9.2,3.4,13.5c1.8,7.3,4.6,14.7,5.8,22.2c1,5.7,4,10.5,4,16.4"/>
<path class="st11" d="M600.7,311.3c0,19.8-2.3,40.1,0.2,59.9c1,7.8,2.1,15.9,3.6,23.5c0.7,3.7,2,7.6,2,11.4"/>
<path class="st11" d="M630.7,249.8c2.6,15.5,6.4,33.8,9,49.2c1,5.9,0.5,12.2,0.5,18.3"/>
<path class="st11" d="M640.2,317c0,3.7-0.5,6.3,0,9.3c1.1,6.5,0.2,13.3,0.2,19.9c0,7.9,0.7,15.6,0.7,23.5c0,3.3-0.2,6.7,0.3,9.9
	c0.3,1.7-0.4,3.6,0,5.2c0.8,3.4,0.8,8.1,0.8,11.6"/>
<path class="st11" d="M606.4,405.1c3.3,1.6,10.3,2.7,13.9,2c2.3-0.5,4.2-1.9,6.2-2.9c5.4-2.7,11-5,16.3-7.7"/>
<path class="st11" d="M607.7,405.1c-1.2,2.4-1.8,11.1,1.5,12.2"/>
<path class="st11" d="M533.6,334.8c0,4.8,1.7,8.4,1.7,13.3"/>
<path class="st11" d="M525.8,438.3c0.1-0.1-0.7,3.8-0.9,4.8c-0.6,3.2,0,6.9,0,10.1"/>
<path class="st11" d="M524.9,451.2c0.3,0.6-0.3,1.6,0.3,2.2c1.2,1.2,4.8,6.5,4.8,8.2"/>
<path class="st11" d="M529.7,461c0.8,0.8,1.1,6.4,1.4,7.9c0.3,1.7,1.2,3.3,1.9,4.8c1,2.5,3.4,4.5,5,6.5c6.7,8.9,21.6,7.8,30.5,3.4
	c1.3-0.7,2.4-1.7,3.7-2.3"/>
<path class="st11" d="M555.3,441.4c0.3,0.2,0.5,1.9,0.6,2.4c1,2.7,1.7,5.5,2.1,8.4c0.5,3.4,3.9,6.3,5.7,9c2.9,4.3,5.1,8.9,6.6,13.9
	c0.6,2.2,2.6,4.9,1.3,6.8"/>
<path class="st11" d="M608.7,417c3.3,2.3,7.3,3.7,11.1,5c2.7,1,5.7-0.5,8.4,0.6c8,3.3,16,7.4,24.4,10.1c5.3,1.7,11.2,0.7,16.5,0.6
	c3.1,0,6.7,0.1,9.7-0.9"/>
<path class="st11" d="M642.5,396.6c0.2-0.3,0.2,0.4,0.8,0.6c1,0.4,1.9,1.2,2.9,1.7c4.2,2.1,7.5,6.4,11.9,8c4.1,1.5,8,4,12,5.7
	c4.7,1.9,9.2,3,13.2,6.3c1.7,1.4,4.9,8.5,2.6,10.2c-0.9,0.6-1.7,1.2-2.4,2c-0.6,0.7-5.6,1.4-6.7,2"/>
<path class="st0" d="M646.5,181.6c-0.1,0-0.3,0-0.4-0.1l-60-34.7c-0.2-0.1-0.3-0.2-0.4-0.4c-0.1-0.2,0-0.4,0.1-0.6
	c0.1-0.1,0.2-0.2,0.3-0.3l54.7-32c0.1-0.1,0.2-0.1,0.4-0.1c0.1,0,0.3,0,0.4,0.1l60,34.7c0.1,0.1,0.2,0.2,0.3,0.3s0.1,0.2,0.1,0.4
	c0,0.1,0,0.3-0.1,0.4c-0.1,0.1-0.2,0.2-0.3,0.3l-54.7,32C646.7,181.6,646.6,181.6,646.5,181.6z"/>
<path class="st0" d="M645.7,259.6c-0.1,0-0.3,0-0.4-0.1c-0.1-0.1-0.2-0.2-0.3-0.3c-0.1-0.1-0.1-0.2-0.1-0.4v-77.9
	c0-0.1,0-0.3,0.1-0.4c0.1-0.1,0.2-0.2,0.3-0.3l54.9-31.9c0.1-0.1,0.2-0.1,0.3-0.1s0.2,0,0.3,0s0.2,0.1,0.3,0.1
	c0.1,0.1,0.1,0.1,0.2,0.2c0.1,0.1,0.1,0.2,0.1,0.4v77.9c0,0.1,0,0.3-0.1,0.4c-0.1,0.1-0.2,0.2-0.3,0.3l-55,32
	C645.9,259.5,645.8,259.6,645.7,259.6z"/>
<path class="st2" d="M645.7,259.6c-0.1,0-0.3,0-0.4-0.1c-0.1-0.1-0.2-0.2-0.3-0.3c-0.1-0.1-0.1-0.2-0.1-0.4v-77.9
	c0-0.1,0-0.3,0.1-0.4c0.1-0.1,0.2-0.2,0.3-0.3l54.9-31.9c0.1-0.1,0.2-0.1,0.3-0.1s0.2,0,0.3,0s0.2,0.1,0.3,0.1
	c0.1,0.1,0.1,0.1,0.2,0.2c0.1,0.1,0.1,0.2,0.1,0.4v77.9c0,0.1,0,0.3-0.1,0.4c-0.1,0.1-0.2,0.2-0.3,0.3l-55,32
	C645.9,259.5,645.8,259.6,645.7,259.6z M646.4,181.3v76.1l53.4-31v-76.2L646.4,181.3z"/>
<path class="st2" d="M645.9,181.6c-0.1,0-0.3,0-0.4-0.1l-60-34.7c-0.2-0.1-0.3-0.2-0.4-0.4c-0.1-0.2,0-0.4,0.1-0.6
	c0.1-0.1,0.2-0.2,0.3-0.3l54.7-32c0.1-0.1,0.2-0.1,0.4-0.1c0.1,0,0.3,0,0.4,0.1l60,34.7c0.1,0.1,0.2,0.2,0.3,0.3s0.1,0.2,0.1,0.4
	c0,0.1,0,0.3-0.1,0.4c-0.1,0.1-0.2,0.2-0.3,0.3l-54.7,32C646.1,181.6,646,181.6,645.9,181.6z M587.3,146.1l58.5,33.8l53.4-31.1
	l-58.5-33.9L587.3,146.1z"/>
<path class="st3" d="M608,133.8l59.1,35.2l11.2-6.5l-59.1-35.2L608,133.8z"/>
<path class="st3" d="M666.8,168.4l0.9,24.2l11.2-6.5l-0.9-24L666.8,168.4z"/>
<path class="st2" d="M903.3,305.9c-0.1,0-0.2,0-0.3-0.1L794.3,243c-0.1-0.1-0.2-0.1-0.2-0.2c-0.1-0.1-0.1-0.2-0.1-0.3v-32.1
	c0-0.1,0-0.2,0.1-0.3s0.1-0.2,0.2-0.2c0.1-0.1,0.2-0.1,0.3-0.1s0.2,0,0.3,0.1l108.7,62.8c0.1,0.1,0.2,0.1,0.2,0.2
	c0.1,0.1,0.1,0.2,0.1,0.3v32.1c0,0.1,0,0.2-0.1,0.3c-0.1,0.1-0.1,0.2-0.2,0.2C903.5,305.8,903.4,305.9,903.3,305.9z M795.2,242.2
	l107.5,62.1v-30.7l-107.5-62.1V242.2z"/>
<path class="st2" d="M903.6,305.8l-0.6-1.1l109.1-63V211l-108.5,62.6l-0.6-1.1l109.4-63.2c0.1,0,0.2-0.1,0.3-0.1s0.2,0,0.3,0.1
	s0.2,0.1,0.2,0.2c0.1,0.1,0.1,0.2,0.1,0.3v32.1c0,0.1,0,0.2-0.1,0.3s-0.1,0.2-0.2,0.2L903.6,305.8z"/>
<path class="st3" d="M913.1,276.7h-1.2v13.6h1.2V276.7z"/>
<path class="st3" d="M920.8,272.2h-1.2v13.6h1.2V272.2z"/>
<path class="st2" d="M928.5,267.8h-1.2v13.6h1.2V267.8z"/>
<path class="st2" d="M903.3,338.1c-0.1,0-0.2,0-0.3-0.1l-108.7-62.8c-0.1-0.1-0.2-0.1-0.2-0.2c-0.1-0.1-0.1-0.2-0.1-0.3v-32.1h1.2
	v31.7l107.5,62.1v-31.1h1.2v32.1c0,0.1,0,0.2-0.1,0.3c-0.1,0.1-0.1,0.2-0.2,0.2C903.5,338.1,903.4,338.1,903.3,338.1z"/>
<path class="st2" d="M903.6,337.9l-0.6-1.1l109.1-63V242h1.2v32.2c0,0.1,0,0.2-0.1,0.3c-0.1,0.1-0.1,0.2-0.2,0.2L903.6,337.9z"/>
<path class="st3" d="M913.1,310.1h-1.2v12.4h1.2V310.1z"/>
<path class="st2" d="M920.8,305.6h-1.2V318h1.2V305.6z"/>
<path class="st2" d="M928.5,301.2h-1.2v12.4h1.2V301.2z"/>
<path class="st2" d="M903.3,370.8c-0.1,0-0.2,0-0.3-0.1l-108.7-62.8c-0.1-0.1-0.2-0.1-0.2-0.2c-0.1-0.1-0.1-0.2-0.1-0.3v-32.1h1.2
	v31.8l107.5,62.1V338h1.2v32.1c0,0.1,0,0.2-0.1,0.3c-0.1,0.1-0.1,0.2-0.2,0.2C903.5,370.8,903.4,370.8,903.3,370.8z"/>
<path class="st2" d="M903.6,370.7l-0.6-1.1l109.1-63v-31.8h1.2V307c0,0.1,0,0.2-0.1,0.3c-0.1,0.1-0.1,0.2-0.2,0.2L903.6,370.7z"/>
<path class="st3" d="M913.1,342.8h-1.2v12.4h1.2V342.8z"/>
<path class="st3" d="M920.8,338.4h-1.2v12.4h1.2V338.4z"/>
<path class="st3" d="M928.5,333.9h-1.2v12.4h1.2V333.9z"/>
<path class="st2" d="M903.3,403.5c-0.1,0-0.2,0-0.3-0.1l-108.7-62.8c-0.1-0.1-0.2-0.1-0.2-0.2c-0.1-0.1-0.1-0.2-0.1-0.3V308h1.2
	v31.8l107.5,62.1v-31.1h1.2v32.1c0,0.1,0,0.2-0.1,0.3c-0.1,0.1-0.1,0.2-0.2,0.2C903.5,403.5,903.4,403.5,903.3,403.5z"/>
<path class="st2" d="M903.6,403.4l-0.6-1.1l109.1-63v-31.7h1.2v32.1c0,0.1,0,0.2-0.1,0.3c-0.1,0.1-0.1,0.2-0.2,0.2L903.6,403.4z"/>
<path class="st3" d="M913.1,375.5h-1.2v12.4h1.2V375.5z"/>
<path class="st2" d="M920.8,371.1h-1.2v12.4h1.2V371.1z"/>
<path class="st2" d="M928.5,366.6h-1.2V379h1.2V366.6z"/>
<path class="st2" d="M903.3,436.2c-0.1,0-0.2,0-0.3-0.1l-108.7-62.8c-0.1-0.1-0.2-0.1-0.2-0.2c-0.1-0.1-0.1-0.2-0.1-0.3v-32.2h1.2
	v31.8l107.5,62.1v-31.1h1.2v32.1c0,0.1,0,0.2-0.1,0.3c-0.1,0.1-0.1,0.2-0.2,0.2C903.5,436.2,903.4,436.2,903.3,436.2z"/>
<path class="st2" d="M903.6,436.1L903,435l109.1-63v-31.7h1.2v32.1c0,0.1,0,0.2-0.1,0.3c-0.1,0.1-0.1,0.2-0.2,0.2L903.6,436.1z"/>
<path class="st3" d="M913.1,408.2h-1.2v12.4h1.2V408.2z"/>
<path class="st2" d="M920.8,403.8h-1.2v12.4h1.2V403.8z"/>
<path class="st2" d="M928.5,399.3h-1.2v12.4h1.2V399.3z"/>
</svg>
